<?xml version="1.0" encoding="utf-8"?>
<!-- Generator: Adobe Illustrator 21.0.2, SVG Export Plug-In . SVG Version: 6.00 Build 0)  -->
<svg version="1.1" id="Layer_1" xmlns="http://www.w3.org/2000/svg" xmlns:xlink="http://www.w3.org/1999/xlink" x="0px" y="0px"
	 width="41px" height="71px" viewBox="0 0 41 71" style="enable-background:new 0 0 41 71;" xml:space="preserve">
<path d="M39.4,69.4c1-1,1.6-2.4,1.6-3.9s-0.6-2.9-1.6-3.9L13.3,35.5L39.4,9.4c1-1,1.6-2.4,1.6-3.9s-0.6-2.8-1.6-3.9
	c-1-1-2.4-1.6-3.9-1.6s-2.9,0.6-3.9,1.6l-30,30c-1,1-1.6,2.4-1.6,3.9s0.6,2.9,1.6,3.9l30,30C33.8,71.5,37.2,71.5,39.4,69.4z"/>
</svg>
