<?xml version="1.0" encoding="utf-8"?>
<!-- Generator: Adobe Illustrator 16.0.0, SVG Export Plug-In . SVG Version: 6.00 Build 0)  -->
<!DOCTYPE svg PUBLIC "-//W3C//DTD SVG 1.1//EN" "http://www.w3.org/Graphics/SVG/1.1/DTD/svg11.dtd">
<svg version="1.1" id="Layer_1" xmlns="http://www.w3.org/2000/svg" xmlns:xlink="http://www.w3.org/1999/xlink" x="0px" y="0px"
	 width="603.419px" height="128.066px" viewBox="8.581 331.967 603.419 128.066"
	 enable-background="new 8.581 331.967 603.419 128.066" xml:space="preserve">
<g>
	<path fill="#FDFDFE" d="M52.327,380.594l0.324-0.759c-0.108,0.542-0.324,1.301-0.649,2.168c2.709-8.563,6.827-19.616,10.512-26.553
		c1.409-2.384,2.602-4.552,2.71-4.877c0-0.325-1.301,1.301-2.71,3.794c-0.325,0.541-0.758,1.191-0.975,1.517
		c-2.168,3.468-4.552,7.804-6.611,12.788l1.301-2.926c-0.65,1.409-1.192,2.818-1.843,4.443l0.325-0.542
		c-2.168,4.877-4.227,12.03-4.769,15.715s0.108,2.492,1.626-2.601L52.327,380.594z"/>
	<path fill="#FDFDFE" d="M56.337,371.599c-1.192,2.926-2.276,5.744-3.252,8.67l-0.217,0.542l0.325-0.108v-0.108
		c0.542-2.817,1.951-7.369,3.469-11.38l0.541-1.408c0.217-0.759,0.434-1.192,0.434-1.301c0-0.434-0.649,0.867-1.408,2.709
		l-0.867,2.168c-2.168,5.311-4.552,13.98-4.769,17.123c-0.108,0.759,0.217,0.108,0.325,0c0.108,0.217,0.759-1.842,1.409-4.552
		c0.758-2.709,1.3-5.094,1.191-5.311l0.434-1.408l-0.325,1.083c0.108-0.758,0.867-3.251,1.409-5.093
		c0.325-0.976,0.65-1.843,0.976-2.71l-0.759,1.409l-0.434,1.409c0-0.108,0.108-0.325,0.108-0.325
		c-0.867,2.709-1.626,5.31-2.385,8.345c-0.324,1.301-0.649,2.492-0.866,3.793c-0.217,1.084,0,0.976,0.325-0.108l0.541-1.626
		l-0.216,0.759c1.083-3.901,2.384-7.911,3.793-11.596c0.217-0.542,0.542-1.301,0.542-1.626
		C56.662,370.732,56.553,370.948,56.337,371.599"/>
	<path fill="#FDFDFE" d="M52.219,385.037c-0.217,0.65-0.325,1.192-0.542,2.168c0,0.217,0,0.325-0.108,0.433
		c0.108-0.324,0.217-0.758,0.325-1.191C52.11,385.471,52.219,385.037,52.219,385.037"/>
	<path fill="#FDFDFE" d="M57.745,378.534l0.108-1.733l-0.108,1.95V378.534z M54.06,380.702c-0.108,0.217-0.108,0.434-0.217,0.542
		C54.06,380.702,54.06,380.702,54.06,380.702 M52.76,384.929l0.108-0.434L52.76,384.929z M52.868,383.953l-0.108,0.325l0.108-0.65
		C52.868,383.628,52.868,383.737,52.868,383.953 M60.888,361.52c0.867-1.518,1.625-2.709,2.384-3.793
		c0.542-1.084,1.192-2.06,1.843-3.144c1.733-2.817,3.576-5.526,5.744-8.02c-0.325,0.325,0.217-0.325,0.434-0.65l0.758-0.975
		c-2.275,2.601-4.335,5.418-6.285,8.345C63.923,355.884,62.188,358.919,60.888,361.52 M111.933,401.619
		c1.518-6.611,2.601-13.222,3.143-19.941l-0.325,4.877C114.1,391.649,113.234,396.634,111.933,401.619 M59.371,368.023
		L59.371,368.023c-0.217,0.434-0.434,0.758-0.434,0.758C59.154,368.456,59.262,368.24,59.371,368.023 M68.149,350.465l-0.217,0.217
		l0.65-0.867c0,0,0,0,1.084-1.191C69.667,348.623,68.908,349.49,68.149,350.465 M52.002,416.466
		c0.108,1.734,0.108,3.252,0.325,4.661l0.107,0.759c0-0.108,0.108,0.216,0.108,0.866c1.301,11.055,5.202,26.444,16.799,28.828
		c0.108,0,0.217,0,0.434,0c0.759-0.217,2.275,0.108,3.793-0.325l1.192-0.217c4.769-1.3,9.212-4.769,12.788-8.562
		c0.759-0.759,1.518-1.842,2.385-2.926c2.926-3.685,5.31-7.695,7.478-12.03c-0.217,0.217-0.325,0.434-0.325,0.434
		c0-0.108,0.434-1.191,1.084-2.275l0.867-1.734c-0.759,1.734-1.734,3.359-2.602,4.985l-0.325,0.65
		c-1.083,1.734-2.059,3.576-3.251,5.311c-4.985,7.478-11.488,14.631-19.183,16.256c-7.911,1.843-14.414-5.311-17.231-13.222
		c-0.108-0.217-0.325-0.65-0.325-0.867s0-0.108,0.108,0.108c3.576,9.971,12.029,17.449,21.783,11.597
		c11.488-7.045,18.641-21.025,23.518-34.789c5.094-14.739,7.587-29.478,6.503-45.193c-0.759-10.295-3.576-21.35-9.862-26.443
		c-5.853-5.311-15.173-0.325-21.459,7.369c-4.769,5.853-8.453,12.03-9.32,12.681c-0.542,0.434-0.108-1.409,1.518-4.227l-0.976,1.625
		l-1.517,2.71c-1.409,2.492-2.493,4.769-3.252,6.178l-0.976,1.95c-1.517,2.493-3.251,6.828-4.443,8.995v-0.542l-0.217,0.434
		c-0.649,1.734-1.083,2.927-1.408,3.36l-0.108-0.217c-0.108-0.434,0-1.409,0.217-2.927c-0.108,0-0.108-0.217-0.108-0.542
		c-0.542,1.192-0.867,1.734-0.867,0.65c-0.217,0.759-0.325,0.542-0.108-0.325l0.325-1.084l0,0c-0.217,0.434-0.217,0.542-0.434,1.084
		c-0.217,0.759-0.325,1.192-0.325,1.192c-0.542,1.951-0.542,1.951-1.084,3.685c-0.434,1.518-0.759,2.385-0.759,2.385
		c-0.758,1.625-0.758,1.625-0.758,1.3v-0.325c-0.325,1.301-0.434,1.409-0.434,1.734c-0.108,0.325-0.217,0.65-0.217,0.65
		c-0.108,0-0.108,0-0.217,0.217c0,0.108-0.108,0-0.108,0c0.108-0.759,0.108-0.759,0.108-0.759c0-0.217,0.108-0.434,0.108-0.434
		c0.217-0.867,0.217-1.192,0.325-1.409c0.65-1.842,0.65-1.842,0.65-1.842v-0.434l0.216-0.434l-0.108,0.217
		c0.325-0.976,0.325-0.976,0.325-0.976c-0.325,1.084-0.325,1.084-0.325,1.084c0.542-2.276,0.65-2.276,0.867-3.143
		c0.325-0.976,0.434-1.734,0.542-1.843l-0.325,0.217c0.65-2.385,0.759-2.385,1.518-4.66l0.217-0.542c0-0.217,0.217-0.65,0.325-1.084
		l0.434-1.191l0.108-0.217l0,0c0.108-0.434,0.217-0.65,0.325-0.976c0.108-0.217,0.108-0.217,0.108-0.217l0,0
		c0.217-0.65,0.649-1.734,1.517-4.335l0.867-1.951l-0.325,0.542c-0.217,0.325-0.108,0-0.217,0.217
		c-2.167,4.66-4.335,10.079-5.853,15.606c-0.216,0.976-0.541,1.95-0.649,2.059s0-0.65,0.325-1.625
		c2.601-11.271,8.236-24.71,15.822-34.247c1.951-2.493,4.118-4.985,6.503-7.262l-0.325,0.325l1.95-1.625l0.217-0.217l-1.517,1.191
		l-1.084,0.867c-5.419,5.419-9.32,10.946-12.788,17.232c-1.843,3.359-3.36,6.285-4.769,9.646c-0.325,0.866-0.65,1.408-0.65,1.3
		s0.325-0.975,0.65-1.842c4.335-11.271,11.921-23.409,20.374-29.587c1.951-1.409,3.794-2.709,5.636-3.468h0.108l-1.409,0.542
		c1.626-0.867,2.493-1.301,4.119-1.734l-0.65,0.108c4.227-1.734,9.754-2.168,14.414-0.108s7.911,5.744,9.862,9.212
		c0.217,0.217,0.325,0.542,0.434,0.867c1.842,2.926,3.251,6.178,4.335,9.971c-0.434-1.301-0.65-2.602-1.192-3.901
		c1.084,2.709,1.842,5.526,2.492,8.453c1.734,8.128,1.409,17.34,0.759,21.566c-0.759,15.606-4.335,30.996-10.621,45.301
		c-0.324,0.759-0.649,1.409-0.758,1.518s0.108-0.434,0.434-1.192c4.552-10.296,7.478-21.242,9.32-32.405
		c-1.626,9.32-4.119,18.533-7.695,27.528c-0.434,1.192-0.867,2.275-1.409,3.468l-1.517,3.359
		c-5.636,10.838-11.922,21.676-24.385,27.854c-5.311,2.384-12.246,2.275-17.015-1.192c-4.877-3.251-7.804-8.128-9.862-13.33
		c-5.527-14.739-5.202-29.045-3.144-43.893c0.325-1.951,0.759-3.793,0.867-4.01c0.108-0.216,0,1.192-0.325,3.144
		c-2.059,15.281-2.492,31.32,3.793,46.276c2.927,7.045,10.079,15.173,19.616,13.98c8.995-1.191,15.39-7.478,20.483-13.655
		c2.275-2.709,4.118-5.636,5.961-8.67h-0.108c-0.108,0,0.108-0.325,0.325-0.867c-1.951,3.36-4.119,6.72-6.72,9.754
		c-3.468,4.335-7.478,8.345-12.788,11.055c-5.094,2.817-12.681,3.251-17.991-0.759c-7.261-5.419-9.536-13.113-11.162-20.267
		c-2.168-9.212-2.385-18.641-1.734-28.069c0-0.325,0.108-0.759,0.108-0.867s0,0.108,0,0.434c-0.542,6.503-0.434,13.113,0.325,19.833
		c0-1.084,0-1.734,0.108-1.626s0.325,0.867,0.434,2.168l-0.325-4.552c-0.108-0.976,0-1.626,0-1.626c0.108,0,0.108,0.759,0.217,1.626
		c0.325,6.178,1.301,12.354,3.359,18.207c2.493,6.72,6.828,14.197,14.739,15.932c-0.976-0.325-1.733-0.542-2.059-0.867l0,0
		c-0.976-0.542-2.168-0.867-3.035-1.626c-8.887-6.502-11.379-17.99-12.68-28.286c-1.084-10.621-0.217-21.458,1.951-31.97
		c0.108-0.434,0.108-0.759,0.217-0.759c0,0,0,0.325-0.108,0.65c-1.301,6.393-2.06,12.788-2.276,19.291l0,0c0-0.217,0-0.325,0.108,0
		c0,0.217,0,0.759,0,0.976c0,0.324,0,0.216-0.108,0c-0.217,11.921,0.976,24.493,7.694,34.571
		c-6.068-9.429-7.261-20.808-7.478-31.646v-3.576c0-0.325,0-0.759,0.108-0.867c0-0.108,0,0.108,0,0.434v0.976
		c0.108-2.06,0.217-3.686,0.434-3.577c0.108,0.108,0.108,1.843,0.108,4.01c-0.108,5.744,0.217,11.488,1.192,17.016l0.433,1.843
		l0.434,1.842c-1.95-8.67-2.167-17.557-1.408-26.335c0.108-0.759,0.108-1.409,0.217-1.409c0,0,0,0.542,0,1.301
		c-0.65,14.847-0.108,32.513,11.054,43.459c3.901,3.034,9.104,3.793,13.655,1.733c-0.541,0.217-1.191,0.434-1.733,0.542
		c-7.912,2.06-14.522-3.901-17.665-10.621c-3.252-6.827-4.877-14.63-5.202-22.759c0-0.434,0-0.759,0-0.759s0,0.217,0.108,0.65
		c0.434,8.021,1.842,15.281,4.985,22.435c2.709,5.743,7.152,10.62,12.68,11.271C58.07,449.413,54.06,434.999,52.76,423.51
		c0-0.542-0.108-1.084-0.108-1.409c0,0,0-0.108-0.108-0.325c-0.216-1.517-0.324-3.251-0.433-4.985c0-0.325,0-0.759,0-0.867
		C51.893,415.925,51.893,416.033,52.002,416.466"/>
	<path fill="#FDFDFE" d="M78.12,374.199l0.108,0.217c-0.108-0.108-0.217-0.325-0.434-0.542c1.084,2.602,3.251,5.744,4.66,7.695
		c0.434,0.759,0.867,1.408,1.084,1.408s0-0.649-0.325-1.408l-0.217-0.542c-0.325-1.301-0.867-2.71-1.734-4.227l0.434,0.976
		l-0.759-1.409v0.217c-0.649-1.626-1.95-3.576-2.817-4.335c-0.867-0.867-1.084-0.217-0.325,1.3L78.12,374.199z"/>
	<path fill="#FDFDFE" d="M78.879,377.343l-1.192-2.71l-0.108-0.217l-0.217,0.217l0,0c0.65,0.65,1.409,1.843,2.168,3.035l0.325,0.434
		c0.108,0.216,0.217,0.324,0.325,0.324c0.217,0,0-0.433-0.217-0.975l-0.325-0.65c-0.759-1.626-2.276-4.01-3.252-4.66
		c-0.217-0.108-0.217,0.108-0.217,0.217c-0.216,0,0.108,0.65,0.542,1.408c0.542,0.759,0.976,1.301,1.192,1.301l0.217,0.434
		l-0.217-0.217c0.217,0.108,0.65,0.867,1.084,1.301l0.542,0.759l0.108-0.65l-0.325-0.434v0.108l-1.626-2.168l-0.867-0.975
		c-0.217-0.217-0.325-0.108-0.217,0.216l0.217,0.542v-0.217l1.843,3.36c0.108,0.217,0.217,0.434,0.325,0.434
		C78.987,377.668,78.987,377.56,78.879,377.343"/>
	<path fill="#FDFDFE" d="M76.602,373.549c-0.108-0.216-0.217-0.324-0.325-0.649l-0.108-0.108l0.217,0.325
		C76.385,373.549,76.494,373.657,76.602,373.549"/>
	<path fill="#FDFDFE" d="M76.169,372.9c0-0.108-0.107-0.108-0.107-0.108L76.169,372.9L76.169,372.9L76.169,372.9z"/>
	<path fill="#FDFDFE" d="M74.869,377.56l0.65,0.217L74.869,377.56L74.869,377.56z M76.819,375.175l-0.108-0.217
		C76.819,375.175,76.819,375.175,76.819,375.175 M76.169,373.983l0.108,0.108L76.169,373.983z M76.385,374.091L76.385,374.091h0.108
		C76.602,374.199,76.494,374.091,76.385,374.091 M80.505,380.486c0.217,0.542,0.217,0.976,0.325,1.409l0.541,0.976
		c0.434,0.975,0.976,1.842,1.301,2.817c0-0.108,0.108,0.108,0.108,0.217l0.217,0.325c-0.325-0.976-0.867-1.951-1.301-3.035
		L80.505,380.486z M91.016,416.466c0-2.167-0.217-4.335-0.325-6.502l0.217,1.517C91.016,413.215,91.125,414.841,91.016,416.466
		 M78.228,379.402L78.228,379.402c0-0.217,0-0.325,0-0.325V379.402z M81.696,384.495L81.696,384.495l0.108,0.217
		c0,0,0,0,0.108,0.542C81.913,385.254,81.804,384.821,81.696,384.495 M72.701,445.511c0.434-0.217,0.867-0.434,1.192-0.65
		l0.217-0.108c0,0,0-0.108,0.217-0.217c3.034-1.734,5.853-4.227,7.694-7.587v-0.217c0.108-0.217,0.217-0.758,0.542-1.191
		l0.217-0.325c0.867-1.409,1.409-2.927,2.06-4.443c0.108-0.325,0.108-0.759,0.217-1.192c0.217-1.409,0.541-2.817,0.541-4.335
		c0,0.108-0.107,0.108-0.107,0.108c-0.108,0-0.108-0.434,0-0.759l0.107-0.542l-0.324,1.734v0.217
		c-0.108,0.649-0.217,1.191-0.325,1.842c-1.192,5.419-3.252,10.296-6.828,13.764l-0.217,0.108c0,0-0.108,0,0-0.108
		c2.168-2.384,3.359-4.769,4.66-8.128c1.409-3.901,1.951-8.236,2.06-12.68c0.217-4.661-0.217-9.104-1.409-13.873
		c-1.409-6.394-3.468-12.354-6.178-18.315c-1.083-2.167-1.842-4.335-1.517-4.877c0.217-0.325,0.649,0.108,1.3,0.867l-0.217-0.542
		l-0.434-0.867c-0.324-0.866-0.649-1.625-0.758-2.059l-0.108-0.65c-0.108-0.976-0.542-2.384-0.65-3.251l0.217,0.108v-0.217
		c-0.217-0.542-0.325-0.976-0.217-1.192h0.217c0.217,0,0.542,0.108,0.976,0.434c0.108-0.108,0.108,0,0.324,0
		c0-0.434,0-0.759,0.434-0.542c-0.108-0.217,0-0.217,0.217,0l0.217,0.325l0,0c0-0.108,0-0.217-0.108-0.325
		c-0.108-0.217-0.217-0.325-0.217-0.325c-0.325-0.542-0.325-0.542-0.649-1.084c-0.217-0.434-0.325-0.759-0.325-0.759
		c0-0.649,0-0.649,0.108-0.649l0.108,0.108c-0.217-0.434-0.217-0.434-0.217-0.542s-0.108-0.217-0.108-0.217v-0.108l0,0
		c0.217,0.108,0.217,0.108,0.217,0.108l0.108,0.108c0.216,0.217,0.216,0.325,0.324,0.325c0.217,0.649,0.217,0.649,0.217,0.649
		c0.108,0.108,0.108,0.108,0.108,0.108v0.217v-0.108c0.108,0.325,0.108,0.325,0.108,0.325c-0.108-0.325-0.108-0.325-0.108-0.325
		c0.325,0.65,0.325,0.65,0.542,0.867c0.108,0.217,0.325,0.434,0.325,0.542l0,0c0.325,0.65,0.325,0.65,0.759,1.301v0.217
		c0.108,0,0.108,0.217,0.217,0.325l0.217,0.325v0.108l0,0l0.217,0.217v0.108l0,0c0.108,0.217,0.325,0.434,0.867,1.191l0.325,0.542
		l-0.108-0.217c0-0.108,0.108-0.108,0.108-0.108c-0.759-1.517-1.518-3.143-2.385-4.66c-0.217-0.217-0.325-0.542-0.325-0.65
		s0.217,0.108,0.434,0.325c2.276,2.818,4.443,6.828,5.853,10.404l1.084,2.818v-0.108l0.217,0.758v0.108l-0.108-0.649l-0.108-0.434
		c-0.867-2.168-1.626-4.118-2.493-6.178c-0.434-1.084-0.867-2.06-1.409-3.143c-0.107-0.217-0.216-0.434-0.107-0.434
		c0.107,0,0.216,0.217,0.324,0.434c2.06,3.251,3.794,7.261,4.552,10.295c0.325,0.65,0.542,1.301,0.65,1.843l0,0l-0.108-0.542
		c0.217,0.542,0.217,0.759,0.325,1.301l0.108-0.217c0.867,2.492,1.843,5.094,2.276,7.369l-0.108,0.217
		c0.434,0.976,0.867,1.951,1.084,3.144l-0.217-1.192c0.217,0.867,0.542,1.734,0.758,2.601c0.65,2.493,0.759,5.419,0.65,6.828
		c0.65,4.985,0.976,9.971,0.542,15.064c0,0.217-0.108,0.542-0.108,0.542s-0.108-0.108,0-0.434c0.217-3.685,0.217-7.262-0.217-10.838
		c0.108,3.034,0.108,6.069-0.108,9.212l-0.217,1.084l-0.217,1.192c-0.433,4.01-1.517,7.694-3.251,11.596
		c-1.409,3.36-3.468,5.961-6.069,8.671c-4.01,3.576-8.995,5.418-14.197,5.526c-0.649,0-1.3,0-1.408-0.217
		c-0.108-0.108,0.434-0.217,1.083-0.217c11.271,0,20.05-9.536,22.435-19.615c0.217-1.084,0.542-2.168,0.759-3.252l0,0
		c-0.108,0-0.108-0.108-0.108-0.325c-0.217,1.192-0.65,2.493-0.976,3.686c-0.867,3.359-2.06,6.936-4.552,9.971
		c-1.626,2.167-3.576,3.685-5.744,4.984c-2.493,1.843-5.636,2.927-8.778,3.577c-0.108,0-0.217,0-0.325,0c0,0,0,0,0.108-0.108
		c2.167-0.542,4.335-1.084,6.286-2.276c-0.325,0.108-0.542,0.108-0.65,0c0-0.108,0.217-0.325,0.542-0.542l-1.409,0.542
		c-0.325,0.108-0.542,0.217-0.542,0.108s0.217-0.217,0.434-0.325c1.95-0.65,3.576-1.733,5.202-2.926
		c1.842-1.518,3.359-3.359,4.66-5.419c-0.217,0.217-0.434,0.325-0.65,0.434l0,0l-0.65,0.867c-3.576,5.744-10.729,8.995-17.665,8.562
		c-0.108,0-0.217,0-0.217,0s0.108,0,0.217,0c2.059,0,4.227,0,6.178-0.542l0,0c-0.108,0-0.108,0,0-0.108l0.324-0.108
		c0.108,0,0.108,0,0,0.108c3.794-0.976,7.262-3.034,9.646-5.961c-2.275,2.71-5.526,4.443-8.778,5.527l-1.084,0.325
		c-0.107,0-0.216,0-0.324,0c0,0,0-0.108,0.108-0.108l0.324-0.108c-0.649,0.108-1.191,0.108-1.191,0s0.542-0.325,1.191-0.434
		c1.734-0.325,3.36-1.192,4.985-1.95l0.434-0.325l0.434-0.434c-2.275,1.625-4.985,2.384-7.694,2.817c-0.217,0-0.434,0.108-0.434,0
		c0,0,0.217-0.108,0.434-0.217c4.66-0.867,8.995-3.468,11.704-7.369c0.759-1.409,1.518-2.71,1.951-4.227l-0.108,0.434
		c-2.385,4.443-5.202,8.02-9.971,9.862c-0.108,0.107-0.217,0.107-0.217,0.107s0-0.107,0.217-0.107
		c2.276-0.867,4.01-2.276,5.744-3.902c1.409-1.408,2.384-2.926,3.359-4.552c-1.842,3.144-4.443,5.744-7.694,7.479l-0.434,0.108
		l-0.108,0.108l-1.301,0.759L72.701,445.511C72.593,445.62,72.701,445.62,72.701,445.511"/>
	<path fill="#FDFDFE" d="M55.903,448.112l-1.192,0.108L55.903,448.112L55.903,448.112z M56.987,451.471l0.433,0.217
		C56.987,451.471,56.987,451.471,56.987,451.471 M59.804,452.339l-0.325-0.108L59.804,452.339z M59.046,452.339l0.217,0.108
		c0,0,0,0-0.434,0C58.829,452.447,58.937,452.447,59.046,452.339 M44.74,446.161c-0.867-0.758-1.626-1.3-2.275-1.842l-1.843-1.518
		c-1.626-1.409-3.359-2.709-4.66-4.227c0.108,0.217-0.217-0.108-0.434-0.325l-0.542-0.542c1.518,1.626,3.035,3.143,4.769,4.552
		C41.381,443.669,43.114,445.078,44.74,446.161 M9.193,380.486c0,4.443,0.649,8.778,1.3,13.113
		c-0.217-1.084-0.434-2.059-0.542-3.143C9.41,387.205,9.085,383.845,9.193,380.486 M49.075,447.245L49.075,447.245
		c0.217,0.217,0.434,0.325,0.434,0.325L49.075,447.245z M38.345,440.418l0.108,0.108l-0.541-0.542c0,0,0,0-0.65-0.867
		C37.371,439.225,37.804,439.876,38.345,440.418 M60.78,365.096c-0.759-0.759-1.518-1.408-2.276-1.95l-0.325-0.325
		c0,0.108-0.108,0-0.434-0.217c-5.96-4.66-13.113-8.995-20.699-9.971c-0.108,0-0.108,0-0.325,0c-0.542,0-1.626-0.108-2.602-0.108
		h-0.758c-3.252,0-6.395,0.867-9.213,2.492c-0.541,0.434-1.083,0.867-1.733,1.409c-1.951,1.951-3.685,4.118-4.769,6.828
		c0.108-0.108,0.217-0.217,0.217-0.217c0.108,0.108-0.217,0.65-0.542,1.408l-0.434,1.084c0.325-1.084,0.976-2.059,1.518-3.034
		v-0.325c0.542-1.084,1.408-1.951,2.059-3.034c6.937-8.779,19.616-7.262,28.828-1.843c0.108,0.108,0.434,0.217,0.542,0.325
		s0,0.108-0.108,0c-6.069-3.035-12.138-4.877-18.857-3.685c-8.236,1.3-13.113,9.104-14.414,17.882
		c-1.626,9.212,0,18.532,3.034,27.96c4.444,12.788,11.271,24.168,20.483,33.38c3.468,3.468,6.828,6.395,7.045,7.045
		c0.108,0.434-0.976,0.217-2.71-1.084l0.976,0.759c0.434,0.434,0.976,0.759,1.518,1.084c1.517,1.083,2.709,2.059,3.468,2.709
		l1.084,0.759c1.408,1.192,3.901,2.817,5.202,3.468h-0.325l0.325,0.108c1.083,0.434,1.733,0.867,1.95,1.084l-0.108,0.108
		c-0.325,0.108-0.867,0.108-1.842,0c0,0.108-0.108,0.108-0.434,0.108c0.759,0.434,1.083,0.759,0.325,0.759
		c0.434,0.217,0.325,0.217-0.217,0.108l-0.65-0.217l0,0c0.217,0.108,0.325,0.217,0.65,0.325c0.434,0.216,0.759,0.324,0.759,0.324
		c1.3,0.434,1.3,0.542,2.384,0.759c0.976,0.217,1.626,0.434,1.626,0.434c1.083,0.542,1.083,0.542,0.867,0.65h-0.217
		c0.866,0.217,0.975,0.217,1.191,0.217c0.217,0.108,0.434,0.108,0.434,0.108c0,0.108,0,0.108,0.217,0.108v0.108
		c-0.542,0-0.542,0-0.542,0c-0.108,0-0.325,0-0.325,0c-0.65-0.108-0.866-0.108-0.975-0.108c-1.301-0.434-1.301-0.434-1.301-0.434
		c-0.325,0-0.325,0-0.325,0c-0.325-0.108-0.325-0.108-0.325-0.108c0.108,0.108,0.108,0.108,0.108,0.108
		c-0.65-0.108-0.65-0.108-0.65-0.108c0.759,0.217,0.759,0.217,0.759,0.217c-1.518-0.325-1.518-0.217-2.168-0.434
		c-0.649-0.217-1.191-0.325-1.191-0.434v0.108c-1.518-0.542-1.518-0.542-3.035-1.084l-0.325-0.217c-0.108,0-0.434-0.108-0.759-0.216
		l-0.758-0.434l-0.217-0.108l0,0l-0.65-0.325c-0.108-0.108-0.108-0.108-0.108-0.108l0,0c-0.434-0.217-1.084-0.434-2.818-1.192
		c-0.433-0.217-0.866-0.434-1.191-0.759l0.325,0.217c0.217,0.217,0,0.108,0.108,0.217c3.034,1.843,6.502,3.576,10.187,4.66
		c0.65,0.217,1.301,0.325,1.409,0.434s-0.434,0.108-1.192-0.108c-7.911-1.518-16.039-7.045-21.458-12.463l-4.227-4.443l0.217,0.217
		l-1.084-1.192l-0.108-0.108l0.65,0.976l0.542,0.649c3.251,3.469,6.285,6.611,10.079,9.429c2.167,1.409,3.685,2.927,5.96,4.011
		c0.542,0.325,0.976,0.541,0.867,0.541s-0.65-0.216-1.192-0.541c-7.261-3.794-13.872-10.188-17.665-15.173
		c-0.867-1.084-1.733-2.168-2.384-3.144l0,0l0.434,0.759c-0.65-0.867-0.976-1.3-1.518-2.167l0.108,0.325
		c-3.034-4.227-6.286-8.995-8.236-13.331l-0.217-0.542c-1.084-1.842-2.168-3.576-3.144-5.96l0.976,2.275
		c-0.759-1.626-1.518-3.251-2.275-4.985c-1.843-4.335-3.252-9.971-3.36-12.788c-2.275-9.754-2.926-20.375,0.325-30.563
		c0.217-0.542,0.434-0.975,0.434-1.083c0.108,0,0,0.325-0.217,0.866c-2.492,7.262-2.492,14.848-1.733,22.109
		c-0.542-6.069-0.434-12.355,1.191-18.641c0.217-0.867,0.325-1.626,0.65-2.385l0.867-2.275c3.034-7.695,10.079-14.522,19.183-15.173
		c7.586-0.65,13.98,1.518,20.158,4.877c8.778,4.877,15.389,11.271,21.241,18.966c0.759,1.084,1.409,2.059,1.409,2.275
		s-0.65-0.542-1.409-1.517c-6.068-8.021-13.547-14.956-22.542-19.833c-8.67-4.769-21.351-7.045-30.563,0.542
		c-1.842,1.625-3.468,3.359-4.66,5.311h0.108c0,0,0,0.217-0.217,0.542c1.518-2.168,3.144-4.228,5.311-5.961
		c5.853-4.985,14.414-5.961,21.676-3.685c5.094,1.517,9.212,4.01,13.113,6.827c4.985,3.468,9.429,7.586,13.438,12.139
		c0.108,0.216,0.325,0.433,0.325,0.433c0,0.108-0.108,0-0.217-0.217c-2.817-3.143-5.853-6.177-9.212-8.778
		c0.434,0.542,0.759,0.867,0.65,0.867s-0.542-0.217-1.192-0.65c0.759,0.65,1.518,1.192,2.168,1.951
		c0.434,0.434,0.759,0.759,0.65,0.759c0,0-0.434-0.217-0.867-0.65c-2.927-2.602-6.069-5.094-9.429-7.153
		c-4.118-2.384-8.562-4.227-13.33-4.985c0.649,0.108,1.083,0.325,1.3,0.542l0,0l2.168,0.542
		c13.113,3.685,23.626,13.764,31.429,25.035c0.108,0.217,0.325,0.434,0.217,0.434c0,0-0.108-0.108-0.325-0.325
		c-2.384-3.359-4.877-6.72-7.803-9.754l0,0c0.108,0.108,0.108,0.217,0,0c-0.108-0.108-0.325-0.325-0.434-0.434s-0.108-0.108,0,0
		c-5.311-5.636-11.597-10.296-18.532-13.33c6.395,2.926,12.138,7.152,17.015,12.138l1.626,1.626
		c0.108,0.108,0.325,0.325,0.325,0.434s-0.108,0-0.217-0.217l-0.434-0.434c0.867,0.976,1.518,1.843,1.409,1.843
		s-0.976-0.759-1.951-1.734c-2.492-2.709-5.311-5.094-8.128-7.261l-0.976-0.65l-0.976-0.65c4.66,3.251,8.67,7.261,12.355,11.487
		c0.325,0.325,0.542,0.759,0.542,0.759s-0.325-0.217-0.65-0.65c-6.611-7.261-14.522-13.872-23.951-16.906
		c-3.144-0.759-6.395-1.084-9.537-0.759h1.191c10.296,0.217,18.966,5.311,26.661,12.138c0.217,0.217,0.325,0.325,0.325,0.434
		c0,0-0.108-0.108-0.325-0.217c-3.793-3.468-7.587-6.177-12.139-8.345c-3.685-1.842-7.478-3.034-11.162-3.468
		c7.586,1.084,14.414,4.877,20.482,9.862c0.325,0.217,0.542,0.434,0.65,0.65l0.217,0.108c0.759,0.65,1.626,1.3,2.385,2.059
		c0.108,0.108,0.325,0.325,0.434,0.434C61.105,365.313,60.997,365.313,60.78,365.096"/>
	<path fill="#FDFDFE" d="M96.11,349.165l0.542-0.976L96.11,349.165L96.11,349.165z M92.859,347.973l-0.325,0.217
		C92.859,347.973,92.859,347.973,92.859,347.973 M90.691,349.706l0.217-0.216L90.691,349.706z M91.016,349.165l-0.108,0.108
		l0.217-0.325C91.125,348.84,91.125,348.948,91.016,349.165 M103.589,341.145c1.191-0.217,2.059-0.434,2.926-0.542l2.385-0.325
		c2.167-0.216,4.443-0.216,6.502,0.542c-0.217-0.108,0.217,0,0.542,0.108l0.759,0.217c-2.168-0.867-4.443-1.191-6.828-1.191
		C107.707,340.17,105.43,340.603,103.589,341.145 M126.022,398.15c1.192-3.901,2.168-7.911,3.034-11.92l-0.542,2.926
		C127.865,392.299,126.998,395.225,126.022,398.15 M100.445,344.072L100.445,344.072c-0.325,0.108-0.542,0.108-0.542,0.108
		L100.445,344.072z M112.259,340.603h-0.217l0.759,0.108c0,0,0,0,0.976,0.325C113.776,340.928,113.017,340.82,112.259,340.603
		 M84.081,452.881c0.867-0.434,1.625-0.976,2.384-1.518l0.434-0.217c-0.108,0,0.108-0.108,0.434-0.325
		c5.744-4.118,11.055-9.861,15.498-16.039l0.108-0.325c0.217-0.434,0.759-1.409,1.409-2.276l0.541-0.65
		c1.951-2.709,3.794-5.526,5.527-8.453c0.325-0.65,0.65-1.3,1.084-2.059c1.192-2.602,2.493-5.202,3.576-8.021
		c-0.108,0.108-0.217,0.217-0.217,0.217c0-0.108,0.217-0.759,0.542-1.518l0.542-1.083l-1.518,3.143l-0.217,0.434l-1.625,3.576
		c-5.094,10.188-10.946,19.183-18.315,26.77l-0.434,0.434c-0.108,0.108-0.108,0,0-0.108c4.552-4.877,7.803-9.646,11.704-16.04
		c4.552-7.586,8.346-15.715,11.38-24.276c3.359-8.886,5.419-17.556,6.286-27.093c1.191-12.03-0.65-26.986-9.104-30.129
		c-3.034-0.976-6.61-0.434-7.261-0.65c-0.434-0.108,0.434-0.976,2.06-1.192l-0.976,0.108c-0.542,0.108-1.084,0.325-1.626,0.434
		c-1.518,0.325-2.817,0.867-3.685,1.084l-1.192,0.325c-1.625,0.542-4.118,1.626-5.527,2.275l0.108-0.324l-0.325,0.217
		c-0.975,0.541-1.625,0.975-1.95,0.975v-0.217c0-0.325,0.325-0.758,0.976-1.517c-0.108,0,0-0.217,0.108-0.325
		c-0.759,0.325-1.192,0.434-0.759-0.217c-0.434,0.217-0.434,0.108,0-0.217l0.542-0.434l0,0c-0.217,0.108-0.325,0.108-0.65,0.325
		c-0.434,0.325-0.65,0.434-0.65,0.434c-1.084,0.759-1.084,0.759-1.843,1.408c-0.759,0.542-1.3,0.867-1.3,0.867
		c-0.976,0.434-0.976,0.434-0.976,0.217l0.108-0.217c-0.65,0.542-0.759,0.542-0.867,0.759c-0.217,0.108-0.325,0.217-0.325,0.217
		c-0.108,0-0.108,0-0.217,0h-0.108c0.325-0.434,0.325-0.434,0.325-0.434c0.108-0.108,0.217-0.217,0.217-0.217
		c0.434-0.434,0.542-0.542,0.65-0.65c0.976-0.65,0.976-0.65,0.976-0.65l0.108-0.216l0.217-0.108c-0.217,0-0.217,0-0.217,0
		l0.433-0.325c-0.541,0.434-0.541,0.434-0.541,0.434c1.083-0.976,1.083-0.976,1.517-1.301s0.867-0.65,0.976-0.759h-0.108
		c1.301-0.867,1.301-0.867,2.493-1.843l0.325-0.217c0.107-0.108,0.324-0.217,0.649-0.434l0.65-0.433l0.108-0.108l0,0l0.542-0.434
		c0.108-0.108,0.108-0.108,0.108-0.108l0,0c0.434-0.217,0.867-0.759,2.493-1.626l1.191-0.542l-0.217,0.542
		c-0.217,0.108-0.108-0.108-0.217,0c-3.251,1.301-6.177,3.359-9.104,5.527c-0.542,0.434-0.976,0.759-1.083,0.759
		c-0.108,0,0.216-0.325,0.649-0.759c5.202-4.769,13.872-10.079,22.76-8.453c2.167,0.542,4.443,1.3,6.285,2.601l-0.217-0.217
		c0.542,0.325,0.976,0.65,1.409,1.084l0.108,0.108c-0.325-0.325-0.542-0.65-0.976-0.867l-0.759-0.542
		c-4.552-2.926-9.754-3.251-14.522-2.167c-2.601,0.542-4.552,1.408-6.719,2.384c-0.542,0.325-0.867,0.542-0.867,0.434
		s0.434-0.434,0.976-0.65c6.502-4.335,18.749-4.877,23.843,1.192c1.3,0.976,2.275,2.168,2.926,3.251l0,0l-0.542-0.867
		c0.65,0.976,1.084,1.409,1.518,2.385l-0.108-0.434c3.034,4.769,4.335,10.404,4.769,15.173l0.108,0.542
		c0.217,1.95,0.65,4.01,0.542,6.394c0-0.758,0-1.625,0-2.384c0.108,1.734,0.108,3.468,0.217,5.311
		c-0.217,4.985-1.084,10.513-2.06,12.896c-1.625,9.429-4.335,18.532-7.911,27.202c-0.217,0.434-0.434,0.867-0.434,0.867
		c-0.108,0,0-0.325,0.217-0.759c2.492-6.285,4.66-12.788,6.286-19.507c-1.518,5.527-3.252,11.054-5.527,16.473l-0.759,2.06
		l-0.976,2.059c-3.034,6.828-6.395,13.114-10.621,19.616c-3.576,5.527-7.152,10.079-11.921,14.739
		c-6.611,6.286-14.197,12.571-25.252,11.813c-1.408,0-2.709-0.759-2.817-0.759c-0.108-0.217,0.867,0.108,2.275,0.325
		c11.38,0.866,19.725-6.069,26.336-12.572c6.719-6.827,12.029-14.848,16.906-23.409c1.084-1.842,1.951-3.685,2.927-5.527h-0.108
		c-0.108,0,0-0.217,0.108-0.542c-1.084,2.06-2.06,4.228-3.36,6.286c-3.034,5.853-6.61,11.488-11.162,17.016
		c-3.144,3.685-6.286,6.827-9.971,9.646c-4.443,3.685-9.429,7.044-15.498,8.236c-0.217,0-0.542,0-0.65,0s0,0,0.325-0.108
		c4.227-0.867,8.02-2.818,11.38-5.094c-0.542,0.325-0.976,0.434-0.976,0.325s0.434-0.434,0.976-0.976
		c-0.759,0.542-1.626,0.976-2.385,1.409c-0.542,0.325-0.867,0.434-0.976,0.434c0-0.108,0.325-0.325,0.867-0.542
		c3.36-1.843,6.286-4.227,8.995-6.72c3.252-3.143,6.178-6.502,8.887-10.079c-0.433,0.434-0.758,0.759-0.975,0.867l0,0l-1.301,1.626
		c-7.586,9.104-18.641,20.916-32.946,17.123c-0.217-0.108-0.434-0.217-0.434-0.217s0.217,0,0.434,0.108
		c3.901,1.518,8.236,1.084,12.029-0.217l0,0c-0.108,0-0.217,0,0,0l0.542-0.217c0.217,0,0.217,0,0,0
		c6.937-2.817,12.572-7.694,17.341-13.113c-4.552,4.877-9.537,9.429-15.823,12.03l-1.951,0.975
		c-0.217,0.108-0.434,0.108-0.542,0.108s0.108-0.108,0.217-0.108l0.542-0.217c-1.191,0.434-2.167,0.542-2.167,0.434
		c0-0.217,1.083-0.434,2.275-0.975c3.252-1.192,6.178-3.144,8.995-5.202l0.867-0.759l0.867-0.759
		c-4.118,3.359-8.887,6.178-13.98,7.369c-0.434,0.108-0.867,0.108-0.867,0.108s0.325-0.108,0.759-0.217
		c8.995-2.384,16.148-9.32,22.217-16.473c1.843-2.493,3.577-5.094,5.202-7.803l-0.65,0.975c-5.96,8.237-11.487,15.39-20.049,20.375
		c-0.217,0.108-0.434,0.217-0.434,0.217s0.108-0.108,0.325-0.217c4.227-2.384,7.478-5.311,10.837-8.778
		c2.818-2.818,5.094-5.853,7.262-8.887c-4.552,5.961-9.429,11.487-15.498,15.714c-0.217,0.217-0.542,0.325-0.759,0.434l-0.108,0.108
		c-0.759,0.542-1.625,1.084-2.492,1.626c-0.217,0.108-0.434,0.217-0.542,0.217C83.756,452.989,83.864,452.989,84.081,452.881"/>
	<path fill="#FDFDFE" d="M62.622,390.24c1.843-4.552,4.011-8.995,6.286-13.438c0.108-0.108,0.108-0.325,0.108-0.325
		s-0.108,0.108-0.108,0.217C66.524,381.136,64.356,385.579,62.622,390.24c-0.108,0.108-0.108,0.217-0.108,0.217
		S62.513,390.348,62.622,390.24"/>
	<path fill="#FDFDFE" d="M65.982,451.688l-0.867-0.108L65.982,451.688L65.982,451.688z M65.007,454.615l0.217,0.217
		C65.115,454.615,65.115,454.615,65.007,454.615 M66.524,455.915l-0.217-0.108L66.524,455.915z M66.091,455.806L66.091,455.806
		c0.108,0.108,0.108,0.108-0.217,0C65.874,455.806,65.982,455.806,66.091,455.806 M59.262,448.112
		c-0.325-0.65-0.325-1.301-0.434-1.843l-0.542-1.408c-0.542-1.301-0.759-2.602-1.084-3.901c0,0.216-0.107-0.108-0.107-0.325
		l-0.108-0.434c0.324,1.408,0.541,2.709,0.975,4.118C58.395,445.62,58.829,446.92,59.262,448.112 M59.588,400.86
		c-0.759,2.601-1.518,5.094-2.168,7.694l0.434-1.951C58.395,404.761,59.046,402.81,59.588,400.86 M61.864,449.738L61.864,449.738
		c0,0.217,0.107,0.325,0.107,0.325L61.864,449.738z M58.07,442.693v0.108l-0.108-0.434c0,0,0,0,0-0.65
		C57.962,441.718,57.962,442.26,58.07,442.693 M83.43,361.628c-0.325,0.542-0.759,1.084-0.976,1.518l-0.217,0.325
		c0.108,0,0,0.108-0.108,0.325c-2.601,4.01-5.202,8.345-7.478,12.788v0.217c-0.108,0.325-0.325,0.976-0.759,1.625l-0.325,0.434
		c-0.976,1.951-2.06,3.902-3.034,5.853c-0.108,0.434-0.325,0.867-0.542,1.409c-0.65,1.733-1.301,3.576-1.951,5.419
		c0.108-0.108,0.108-0.108,0.108-0.108c0.108,0.108,0,0.542-0.217,0.975l-0.325,0.759l0.867-2.059l0.108-0.325l0.976-2.276
		c2.817-6.827,5.853-13.113,9.32-19.183l0.217-0.325c0.108,0,0.108,0,0,0.108c-2.06,3.902-3.468,7.37-5.419,11.922
		c-2.384,5.311-4.335,10.729-6.069,16.472c-2.059,5.853-3.359,11.488-4.227,17.666c-1.192,8.345-1.517,16.364,0,23.951
		c0.65,2.817,1.301,5.094,0.976,5.744c-0.217,0.325-0.65-0.108-1.301-1.192l0.217,0.65l0.325,1.084
		c0.434,0.975,0.759,1.733,0.867,2.384l0.217,0.759c0.325,0.976,0.976,2.601,1.518,3.359h-0.217l0.108,0.217
		c0.434,0.542,0.758,0.976,0.758,1.192l-0.217,0.108c-0.216,0.108-0.649,0-1.191-0.217c0,0.108-0.108,0.108-0.325,0
		c0.217,0.434,0.325,0.759-0.108,0.65c0.217,0.217,0.108,0.325-0.217,0.108l-0.325-0.325l0,0c0.108,0.108,0.108,0.217,0.325,0.434
		s0.325,0.325,0.325,0.325c0.65,0.542,0.65,0.649,1.301,1.083c0.541,0.434,0.866,0.65,0.866,0.65c0.542,0.65,0.542,0.65,0.325,0.759
		h-0.108c0.542,0.325,0.542,0.325,0.65,0.434s0.217,0.217,0.217,0.217c0,0.108,0,0.108,0.108,0.108v0.108
		c-0.325-0.108-0.325-0.108-0.325-0.108c-0.108,0-0.217-0.108-0.217-0.108c-0.325-0.217-0.542-0.217-0.542-0.217
		c-0.65-0.65-0.65-0.65-0.65-0.65c-0.216,0-0.216,0-0.216,0c-0.108-0.217-0.108-0.217-0.108-0.217
		c0.108,0.108,0.108,0.108,0.108,0.108c-0.325-0.217-0.325-0.217-0.325-0.217c0.434,0.325,0.434,0.325,0.434,0.325
		c-0.867-0.542-0.867-0.542-1.192-0.759c-0.325-0.325-0.65-0.542-0.65-0.542v0.108c-0.867-0.758-0.867-0.758-1.626-1.517
		l-0.108-0.217c-0.108-0.108-0.217-0.217-0.325-0.325l-0.325-0.434l-0.108-0.108l0,0l-0.325-0.325l-0.107-0.108l0,0
		c-0.217-0.217-0.65-0.542-1.301-1.518l-0.434-0.866l0.108,0.217c0.108,0.216-0.108,0.107,0,0.107
		c0.976,2.06,2.709,4.119,4.769,5.853c0.325,0.325,0.759,0.542,0.759,0.65s-0.325,0-0.759-0.325
		c-4.769-2.926-7.695-9.104-8.562-13.98c-0.325-1.301-0.65-2.601-0.759-3.901v0.217l-0.108-0.976v-0.108v0.759v0.542
		c0.434,3.034,1.084,5.744,2.167,8.67c0.542,1.518,1.301,2.926,2.06,4.335c0.217,0.325,0.434,0.65,0.325,0.65
		s-0.325-0.325-0.65-0.65c-3.143-4.66-4.552-10.513-4.552-14.522c-0.217-0.867-0.217-1.733-0.217-2.492l0,0l-0.108,0.542
		c0-0.65,0-1.084,0-1.626l-0.108,0.217c-0.217-3.359-0.217-6.937,0.217-9.862v-0.325c0-1.301-0.108-2.601,0.108-4.118l-0.217,1.518
		c0.108-1.084,0.108-2.168,0.325-3.36c0.434-3.251,1.301-6.72,2.06-8.236c1.191-6.069,3.034-12.03,5.093-17.773
		c0.108-0.325,0.217-0.542,0.325-0.542s0,0.217-0.108,0.542c-1.408,4.227-2.709,8.453-3.793,12.788
		c1.084-3.576,2.276-7.153,3.576-10.729l0.542-1.409l0.542-1.3c1.734-4.552,3.685-8.778,5.853-13.331
		c1.843-3.793,3.685-7.152,5.853-10.837c3.143-5.094,6.394-9.646,10.513-13.98c0.541-0.542,1.083-1.084,1.3-1.084
		c0.108,0-0.217,0.542-0.759,1.084c-8.562,8.887-14.522,19.399-19.832,31.104c-0.542,1.301-1.192,2.493-1.626,3.793h0.108
		c0.108,0,0.108,0.217,0,0.434c0.542-1.408,1.301-2.817,1.951-4.227c1.625-4.01,3.468-7.911,5.852-11.813
		c1.626-2.71,3.252-5.094,5.094-7.37c2.06-3.143,4.227-6.068,6.72-8.995c0.108-0.108,0.217-0.217,0.217-0.217s0,0-0.108,0.217
		c-1.626,2.06-3.144,4.118-4.66,6.395c0.325-0.325,0.542-0.434,0.65-0.325s0,0.434-0.325,0.867l1.083-1.409
		c0.217-0.325,0.434-0.542,0.434-0.434c0,0-0.108,0.325-0.325,0.542c-1.517,1.951-2.926,3.901-4.227,5.961
		c-1.517,2.492-3.034,4.985-4.443,7.586c0.217-0.325,0.434-0.542,0.65-0.65l0,0l0.65-1.192c3.901-7.261,8.778-14.306,14.848-20.266
		c0.108-0.108,0.217-0.217,0.217-0.217s-0.108,0.108-0.217,0.217c-1.843,1.842-3.576,3.685-5.202,5.744l0,0
		c0.108-0.108,0.108-0.108,0,0l-0.217-0.108c-0.108,0.108-0.108,0.108,0,0c-2.926,3.685-5.744,7.586-7.911,11.704
		c2.167-3.685,4.769-7.261,7.478-10.621l0.867-1.191c0.108-0.108,0.217-0.217,0.217-0.217s0,0.108-0.108,0.217l-0.217,0.325
		c0.542-0.65,0.976-1.084,1.084-0.976s-0.325,0.759-0.867,1.408c-1.409,1.734-2.818,3.577-4.118,5.419l-0.434,0.65l-0.325,0.65
		c2.059-2.926,4.227-5.636,6.503-8.128c0.216-0.217,0.433-0.434,0.433-0.325c0,0-0.108,0.217-0.324,0.434
		c-3.902,4.769-7.37,9.862-10.404,15.28l-2.493,5.636l0.325-0.65c3.144-5.852,5.744-11.054,9.646-16.256
		c0.108-0.108,0.217-0.217,0.217-0.217s0,0.108-0.108,0.217c-1.95,2.492-3.359,5.094-4.985,7.694
		c-1.301,2.276-2.492,4.443-3.468,6.611c2.275-4.335,4.66-8.453,7.478-12.464c0.108-0.217,0.217-0.324,0.325-0.433v-0.108
		l1.084-1.626c0.108-0.108,0.217-0.217,0.217-0.325C83.539,361.411,83.539,361.52,83.43,361.628"/>
	<path fill="#FDFDFE" d="M33.361,395.875v-0.867c0,0.542,0.107,1.301,0.107,2.275c0.108-8.886,0.867-20.482,2.493-27.96
		c0.65-2.709,1.192-5.094,1.192-5.311c-0.108-0.324-0.867,1.626-1.518,4.336c-0.217,0.541-0.325,1.3-0.542,1.733
		c-1.084,3.793-2.167,8.562-2.709,13.872c0.108-0.976,0.217-2.059,0.434-3.143c-0.217,1.518-0.325,3.034-0.542,4.769l0.108-0.65
		c-0.65,5.311-0.542,12.571,0,16.148c0.65,3.685,0.867,2.275,0.759-2.927L33.361,395.875z"/>
	<path fill="#FDFDFE" d="M34.552,386.23c-0.325,3.143-0.542,6.069-0.542,9.104v0.542l0.217-0.217v-0.108
		c-0.325-2.818-0.325-7.479,0.108-11.705l0.108-1.517c0-0.759,0-1.192,0-1.409c-0.108-0.325-0.325,0.976-0.542,2.926l-0.217,2.276
		c-0.541,5.636-0.324,14.522,0.434,17.556c0.108,0.65,0.217,0.108,0.325-0.108c0.217,0.217,0.108-1.95,0-4.66
		c0-2.817-0.217-5.202-0.434-5.418l0.108-1.408v1.083c-0.108-0.759-0.108-3.359-0.108-5.202c0-0.975,0.108-1.842,0.108-2.817
		l-0.542,1.626v1.517c0-0.108,0-0.325,0-0.325c0,2.818,0,5.527,0.217,8.562c0.108,1.3,0.108,2.601,0.325,3.901
		c0.108,1.084,0.217,0.976,0.217-0.217v-1.734v0.759c-0.108-3.901,0-8.127,0.325-12.029c0.108-0.65,0.108-1.409,0.108-1.734
		C34.661,385.254,34.552,385.579,34.552,386.23"/>
	<path fill="#FDFDFE" d="M34.444,400.101c0,0.65,0,1.301,0.108,2.167c0,0.217,0,0.325,0.108,0.434c0-0.325,0-0.759,0-1.3
		C34.552,400.535,34.552,400.101,34.444,400.101"/>
	<path fill="#FDFDFE" d="M34.661,402.702c0,0.325,0,0.542,0,0.542v-0.325C34.661,402.702,34.661,402.702,34.661,402.702
		L34.661,402.702z"/>
	<path fill="#FDFDFE" d="M97.519,420.368c-2.385,11.921-6.069,24.602-16.257,33.705c-0.325,0.325-0.649,0.542-0.649,0.542
		s0.324-0.217,0.649-0.434c10.296-8.995,13.872-21.676,16.365-33.597c0.108-0.434,0.108-0.759,0.108-0.759
		C97.628,419.718,97.519,420.043,97.519,420.368"/>
	<path fill="#FDFDFE" d="M41.164,427.737C41.272,428.062,41.272,428.062,41.164,427.737c0-0.325-0.108-0.759-0.217-0.976
		c-0.108-0.216-0.108-0.216,0,0C40.947,427.087,41.055,427.52,41.164,427.737"/>
	<path fill="#FDFDFE" d="M37.913,392.406l-0.434-1.733l0.434,1.842V392.406z M34.986,395.442c0,0.217,0,0.434,0,0.65
		C34.986,395.442,34.986,395.442,34.986,395.442 M34.986,399.885v-0.434V399.885z M34.769,398.909v0.325c0,0,0,0-0.108-0.65
		C34.661,398.475,34.769,398.692,34.769,398.909 M35.962,375.5c0.434-1.734,0.759-3.034,1.192-4.335l0.867-3.468
		c0.866-3.144,1.842-6.286,3.143-9.212c-0.217,0.325,0.108-0.325,0.217-0.759l0.434-1.084c-1.409,3.143-2.602,6.286-3.577,9.646
		C37.371,369.323,36.504,372.574,35.962,375.5 M98.061,392.948c-0.542-6.61-1.409-13.222-3.034-19.724l1.083,4.769
		C97.086,382.978,97.844,387.963,98.061,392.948 M36.504,382.003L36.504,382.003c-0.108,0.542-0.217,0.867-0.217,0.867
		C36.395,382.437,36.395,382.22,36.504,382.003 M39.863,362.929l-0.217,0.325l0.434-1.084c0,0,0,0,0.65-1.409
		C40.73,360.869,40.297,361.845,39.863,362.929 M43.764,429.58c0.542,1.518,1.192,3.034,1.843,4.227l0.325,0.759
		c0-0.108,0.108,0.217,0.434,0.759c4.66,9.862,14.631,22.217,26.01,18.315c0.108-0.108,0.217-0.108,0.434-0.217
		c0.759-0.217,2.06-1.084,3.468-1.843c0.325-0.217,0.65-0.434,0.976-0.759c4.01-3.034,7.045-7.478,9.429-12.246
		c0.434-0.976,0.976-2.168,1.409-3.468c1.626-4.335,2.817-8.887,3.576-13.547c-0.108,0.325-0.108,0.433-0.217,0.433
		c-0.108-0.107,0.108-1.191,0.325-2.492l0.325-1.951c-0.217,1.843-0.759,3.686-1.084,5.419l-0.217,0.759
		c-0.541,1.951-0.866,4.01-1.625,5.961c-2.602,8.562-6.72,16.906-13.222,21.566c-6.503,4.985-15.281,2.493-20.917-3.685
		c-0.217-0.217-0.434-0.542-0.65-0.65c-0.108-0.108,0-0.108,0.217,0.108c7.153,7.804,17.448,9.212,24.602,0.325
		c8.562-10.404,11.596-25.252,12.354-39.666c0.65-15.281-1.3-29.911-7.369-44c-3.901-9.429-10.621-18.208-18.207-19.508
		c-7.479-1.192-14.522,6.61-18.208,15.714c-2.817,6.828-4.552,13.764-5.201,14.631c-0.325,0.542-0.434-1.3,0.217-4.443l-0.434,1.843
		l-0.65,2.926c-0.65,2.818-0.976,5.202-1.409,6.72l-0.434,2.059c-0.65,2.818-1.192,7.37-1.626,9.754l-0.107-0.542l-0.108,0.542
		c-0.108,1.843-0.217,3.035-0.325,3.468l-0.217-0.217c-0.217-0.433-0.434-1.3-0.65-2.818c-0.108,0-0.217-0.108-0.217-0.542
		c-0.217,1.301-0.325,1.843-0.65,0.867c0,0.759-0.108,0.65-0.217-0.325v-1.084l0,0c-0.108,0.434-0.108,0.542-0.108,1.084
		c0,0.759,0,1.192,0,1.192c0,2.059,0,2.059,0,3.792c0,1.518,0,2.493,0,2.493c-0.217,1.733-0.217,1.733-0.434,1.408l-0.108-0.325
		c0,1.409,0,1.409,0.108,1.843c0,0.434,0,0.65,0,0.65c-0.108,0.108-0.108,0.108-0.108,0.325c0,0.108,0,0.108-0.108,0.108
		c-0.108-0.759-0.108-0.759-0.217-0.759c0-0.217-0.108-0.434-0.108-0.434c-0.108-0.867-0.108-1.192-0.108-1.409
		c0.108-1.95,0.108-1.95,0.108-1.95l-0.108-0.434l0.108-0.434l-0.108,0.434v-0.976c0,1.084,0,1.084,0,1.084
		c-0.108-2.276,0-2.276-0.108-3.144c0-0.974,0-1.733,0-1.841c0,0.108,0,0.108,0,0.108c0-2.493,0-2.493,0.108-4.769l0.108-0.542
		c0-0.217,0-0.65,0-1.192v-1.301v-0.216l0,0c0-0.434,0-0.759,0-1.084c0-0.217,0-0.217,0-0.217l0,0c0-0.759,0.108-1.734,0.217-4.552
		l0.325-2.06l-0.108,0.65c-0.108,0.434-0.108,0-0.108,0.217c-0.759,5.202-1.192,10.946-1.084,16.473c0,0.975,0,1.95,0,2.059
		c-0.108,0.108-0.108-0.542-0.108-1.626c-0.866-11.378,0.867-25.684,5.311-36.847c1.192-2.926,2.493-5.853,4.01-8.67l-0.324,0.434
		l1.3-2.168l0.108-0.217l-1.084,1.518l-0.649,1.084c-3.469,6.61-5.636,13.005-7.262,19.833c-0.867,3.685-1.409,6.936-1.842,10.512
		c-0.108,0.867-0.217,1.518-0.217,1.409s0-0.976,0.108-1.842c1.083-11.922,4.877-25.469,10.945-33.705
		c1.301-1.843,2.602-3.686,4.01-4.985l0.108-0.108l-1.083,0.976c1.3-1.301,1.842-1.951,3.143-3.035l-0.65,0.434
		c6.069-6.61,18.857-8.128,25.577-2.601l0.759,0.542c3.034,1.842,5.635,4.227,8.02,7.369c-0.759-1.084-1.626-2.06-2.602-3.143
		c2.06,2.059,3.902,4.335,5.527,6.936c4.443,7.045,7.153,15.715,7.804,19.833c4.118,14.848,5.201,30.454,3.251,45.734
		c-0.108,0.759-0.217,1.518-0.325,1.626s0-0.434,0.108-1.192c1.409-10.945,1.084-22.216-0.542-33.163
		c1.301,9.212,1.518,18.64,0.65,28.177c-0.108,1.192-0.217,2.385-0.434,3.686l-0.542,3.576c-2.275,11.922-5.527,23.626-14.739,33.38
		c-7.911,8.995-22.976,7.694-30.236-1.084c-10.838-11.487-14.956-25.251-17.449-39.774c-0.325-1.95-0.434-3.793-0.325-4.01
		s0.325,1.192,0.65,3.144c2.602,14.956,7.153,30.345,18.966,41.616c5.527,5.744,16.04,8.236,23.518,3.359
		c7.37-4.443,11.597-11.921,14.631-19.291c1.301-3.251,2.385-6.502,3.143-9.754l-0.108,0.108c-0.107,0,0-0.324,0-0.866
		c-0.975,3.685-2.059,7.478-3.576,11.054c-3.793,9.32-10.837,21.784-24.71,21.242c-8.995-1.084-14.521-7.37-18.641-13.222
		c-5.31-7.804-8.562-16.582-10.729-25.577c-0.108-0.325-0.217-0.759-0.217-0.867s0.108,0,0.108,0.434
		c1.517,6.178,3.576,12.463,6.61,18.424c-0.434-0.976-0.542-1.625-0.434-1.518c0.108,0,0.542,0.759,1.192,1.843
		c-0.759-1.301-1.192-2.709-1.842-4.118c-0.325-0.867-0.65-1.518-0.542-1.518c0,0,0.325,0.65,0.758,1.518
		c2.385,5.636,5.311,10.946,9.429,15.606c4.66,5.419,12.464,9.537,19.941,7.261c-0.976,0.217-1.842,0.217-2.167,0.217l0,0
		c-1.084,0.217-2.276,0.217-3.469,0.108c-10.945-1.084-17.882-11.055-22.434-20.158c-4.552-9.537-6.936-19.941-8.128-30.453
		c0-0.434-0.108-0.759,0-0.759c0,0,0.108,0.325,0.108,0.65c0.65,6.394,1.842,12.68,3.685,18.749l0,0c-0.108-0.217,0-0.325,0,0
		c0.108,0.217,0.217,0.759,0.325,0.976c0.108,0.325,0,0.217,0,0c3.576,11.054,8.995,22.542,19.291,28.72
		c-9.537-5.744-14.631-16.148-18.099-26.119c-0.434-1.084-0.759-2.167-1.192-3.359c-0.108-0.325-0.217-0.759-0.217-0.867
		s0.108,0.108,0.217,0.434l0.325,0.976c-0.542-1.951-0.867-3.469-0.759-3.469c0.108,0.108,0.759,1.734,1.301,3.686
		c1.733,5.311,3.793,10.62,6.719,15.389l0.976,1.518l1.084,1.518c-4.877-7.262-7.911-15.498-9.862-23.951
		c-0.217-0.759-0.325-1.301-0.217-1.409c0,0,0.217,0.542,0.434,1.301c3.793,13.872,10.513,30.887,25.469,35.005
		c4.769,0.759,9.537-1.408,13.005-4.769l-1.409,1.192c-6.394,4.985-14.739,3.793-20.267-1.192
		c-5.852-4.66-9.753-11.487-12.896-18.857c-0.108-0.325-0.217-0.649-0.217-0.758c0,0,0.108,0.217,0.217,0.541
		c3.035,7.153,6.72,13.656,12.464,18.642c4.66,4.118,10.837,5.96,15.931,3.793c-11.379,3.793-21.133-7.479-26.01-17.774
		c-0.217-0.433-0.434-0.975-0.542-1.3c0,0-0.108-0.108-0.108-0.217c-0.65-1.409-1.409-2.818-1.951-4.443
		c-0.108-0.325-0.217-0.65-0.325-0.867C43.548,429.038,43.656,429.255,43.764,429.58"/>
	<g>
		<path fill="#FDFDFE" d="M166.988,352.958v31.104h0.217c2.06-3.143,4.877-5.527,8.454-7.044c3.576-1.518,7.261-2.168,11.054-2.168
			c3.143,0,6.178,0.65,9.212,1.951c3.035,1.301,5.744,3.251,8.236,5.853c2.385,2.601,4.444,5.96,5.961,10.078
			c1.518,4.119,2.276,8.996,2.276,14.63c0,5.636-0.759,10.513-2.276,14.631c-1.517,4.119-3.468,7.479-5.961,10.079
			c-2.384,2.602-5.201,4.552-8.236,5.853c-3.034,1.301-6.069,1.951-9.212,1.951c-4.552,0-8.67-0.759-12.246-2.168
			c-3.577-1.409-6.286-3.901-8.129-7.261h-0.216v7.911h-16.148v-85.4H166.988z M194.516,399.993
			c-0.542-2.385-1.409-4.551-2.602-6.394c-1.192-1.842-2.709-3.251-4.443-4.335c-1.843-1.084-4.01-1.626-6.503-1.626
			c-2.492,0-4.66,0.542-6.502,1.626c-1.843,1.084-3.36,2.493-4.552,4.335c-1.192,1.843-2.06,3.901-2.602,6.394
			c-0.542,2.384-0.867,4.877-0.867,7.586c0,2.602,0.325,4.985,0.867,7.37c0.542,2.384,1.409,4.552,2.602,6.395
			c1.191,1.842,2.709,3.251,4.552,4.335c1.842,1.084,4.01,1.625,6.502,1.625c2.602,0,4.769-0.541,6.503-1.625
			c1.843-1.084,3.251-2.493,4.443-4.335c1.192-1.843,2.06-3.902,2.602-6.395c0.541-2.385,0.866-4.877,0.866-7.37
			C195.383,404.87,195.057,402.377,194.516,399.993z"/>
	</g>
	<g>
		<path fill="#FDFDFE" d="M258.349,438.358v-8.67h-0.325c-2.167,3.576-4.985,6.178-8.345,7.803
			c-3.468,1.626-6.937,2.385-10.513,2.385c-4.552,0-8.236-0.65-11.163-1.843c-2.926-1.192-5.201-2.926-6.827-5.094
			c-1.626-2.167-2.818-4.877-3.576-8.02c-0.65-3.143-0.976-6.611-0.976-10.513v-37.931h17.015v34.896
			c0,5.094,0.759,8.888,2.385,11.38c1.625,2.493,4.443,3.794,8.453,3.794c4.66,0,8.02-1.409,10.079-4.119
			c2.059-2.709,3.143-7.261,3.143-13.547v-32.404h17.016v61.882H258.349z"/>
	</g>
	<g>
		<path fill="#FDFDFE" d="M319.04,376.476v11.379h-12.463v30.67c0,2.927,0.434,4.769,1.408,5.744
			c0.976,0.976,2.818,1.409,5.744,1.409c0.976,0,1.843,0,2.71-0.108c0.866-0.108,1.733-0.217,2.492-0.325v13.113
			c-1.409,0.217-3.034,0.434-4.769,0.434c-1.734,0.108-3.468,0.108-5.094,0.108c-2.601,0-5.094-0.217-7.478-0.542
			c-2.385-0.325-4.443-1.084-6.178-2.06c-1.842-1.083-3.251-2.492-4.227-4.443c-1.084-1.95-1.518-4.443-1.518-7.586v-36.415h-10.295
			v-11.379h10.295v-18.532h16.908v18.532H319.04z"/>
	</g>
	<g>
		<path fill="#FDFDFE" d="M363.041,376.476v11.379h-12.464v30.67c0,2.927,0.434,4.769,1.409,5.744s2.818,1.409,5.744,1.409
			c0.976,0,1.842,0,2.709-0.108s1.734-0.217,2.493-0.325v13.113c-1.409,0.217-3.035,0.434-4.769,0.434
			c-1.734,0.108-3.469,0.108-5.202,0.108c-2.602,0-5.094-0.217-7.479-0.542c-2.384-0.325-4.443-1.084-6.177-2.06
			c-1.843-1.083-3.252-2.492-4.227-4.443c-1.084-1.95-1.518-4.443-1.518-7.586v-36.415h-10.296v-11.379h10.296v-18.532h17.015
			v18.532H363.041z"/>
	</g>
	<g>
		<path fill="#FDFDFE" d="M386.017,423.51c2.601,2.493,6.178,3.685,11.055,3.685c3.468,0,6.394-0.866,8.887-2.601
			c2.492-1.734,4.01-3.576,4.552-5.419h14.956c-2.385,7.37-6.069,12.68-11.055,15.932c-4.985,3.143-10.946,4.769-17.99,4.769
			c-4.877,0-9.212-0.759-13.114-2.385c-3.901-1.517-7.261-3.793-9.97-6.61c-2.71-2.927-4.769-6.286-6.286-10.296
			c-1.518-4.011-2.168-8.346-2.168-13.114c0-4.66,0.759-8.887,2.276-12.896c1.518-4.01,3.685-7.478,6.503-10.404
			c2.817-2.926,6.177-5.202,9.97-6.827c3.902-1.626,8.129-2.493,12.897-2.493c5.311,0,9.862,0.976,13.764,3.035
			c3.901,2.059,7.152,4.769,9.646,8.236c2.492,3.468,4.335,7.369,5.419,11.704c1.083,4.443,1.517,8.995,1.191,13.764h-44.65
			C382.115,417.116,383.524,421.018,386.017,423.51z M405.199,390.998c-2.06-2.276-5.094-3.36-9.32-3.36
			c-2.71,0-4.985,0.434-6.72,1.409c-1.842,0.867-3.251,2.06-4.335,3.359c-1.084,1.409-1.842,2.818-2.275,4.335
			c-0.434,1.517-0.65,2.926-0.759,4.118h27.744C408.667,396.525,407.258,393.274,405.199,390.998z"/>
	</g>
	<g>
		<path fill="#FDFDFE" d="M447.141,376.476v11.487h0.217c0.759-1.95,1.843-3.685,3.251-5.31c1.409-1.626,2.927-3.035,4.66-4.228
			c1.734-1.191,3.577-2.059,5.636-2.709c1.951-0.65,4.118-0.976,6.178-0.976c1.084,0,2.384,0.217,3.685,0.65v15.823
			c-0.759-0.108-1.734-0.325-2.817-0.434c-1.084-0.108-2.168-0.217-3.252-0.217c-3.143,0-5.743,0.542-7.911,1.518
			c-2.168,1.083-3.901,2.492-5.202,4.227c-1.301,1.841-2.275,3.901-2.817,6.285c-0.542,2.385-0.867,4.985-0.867,7.804v27.853
			h-17.015v-61.774H447.141z"/>
	</g>
	<g>
		<path fill="#FDFDFE" d="M474.668,387.855v-11.379h10.188v-4.769c0-5.527,1.734-9.971,5.094-13.547
			c3.468-3.469,8.562-5.311,15.606-5.311c1.517,0,3.034,0.108,4.552,0.217c1.517,0.108,3.034,0.217,4.443,0.325v12.68
			c-1.951-0.217-4.118-0.325-6.178-0.325c-2.275,0-4.01,0.542-4.985,1.626s-1.517,2.926-1.517,5.419v3.685h11.704v11.379h-11.704
			v50.503h-17.016v-50.503H474.668z"/>
	</g>
	<g>
		<path fill="#FDFDFE" d="M535.684,352.958v85.4h-17.015v-85.4H535.684z"/>
	</g>
	<g>
		<path fill="#FDFDFE" d="M569.931,456.782c-3.251,2.168-7.803,3.251-13.655,3.251c-1.734,0-3.468-0.108-5.202-0.216
			c-1.733-0.108-3.468-0.217-5.202-0.434v-13.98c1.626,0.108,3.252,0.324,4.877,0.433c1.626,0.108,3.359,0.217,4.985,0.108
			c2.276-0.217,3.901-1.083,4.985-2.601s1.626-3.143,1.626-4.985c0-1.301-0.217-2.601-0.759-3.793l-21.676-58.089h18.1
			l14.089,42.375h0.217l13.547-42.375h17.557l-25.901,69.577C575.675,451.038,573.182,454.615,569.931,456.782z"/>
	</g>
</g>
<g>
	<path fill="#FDFDFE" d="M603.438,348.26c-4.66,0-8.562,3.793-8.562,8.562c0,4.66,3.793,8.562,8.562,8.562
		c4.66,0,8.563-3.793,8.563-8.562S608.098,348.26,603.438,348.26z M603.438,364.3c-4.118,0-7.586-3.359-7.586-7.586
		s3.359-7.586,7.586-7.586c4.118,0,7.587,3.359,7.587,7.586S607.556,364.3,603.438,364.3z"/>
	<path fill="#FDFDFE" d="M604.739,357.039L604.739,357.039c1.084-0.434,1.843-1.301,1.843-2.601c0-0.759-0.325-1.409-0.759-1.951
		c-0.65-0.542-1.518-0.867-2.927-0.867c-0.866,0-1.842,0.108-2.492,0.217v9.862h1.301v-4.335h1.191c1.192,0,1.734,0.542,1.951,1.95
		c0.325,1.301,0.542,2.06,0.65,2.385h1.3c-0.216-0.434-0.433-1.301-0.758-2.709C606.039,358.014,605.606,357.256,604.739,357.039z
		 M603.113,356.497h-1.3v-3.685c0.217-0.108,0.649-0.108,1.3-0.108c1.409,0,2.276,0.542,2.276,1.842
		C605.389,355.738,604.522,356.497,603.113,356.497z"/>
</g>
</svg>
