<?xml version="1.0" encoding="utf-8"?>
<!-- Generator: Adobe Illustrator 19.0.0, SVG Export Plug-In . SVG Version: 6.00 Build 0)  -->
<svg version="1.1" id="Layer_1" xmlns="http://www.w3.org/2000/svg" xmlns:xlink="http://www.w3.org/1999/xlink" x="0px" y="0px"
	 viewBox="0 0 132 28" style="enable-background:new 0 0 132 28;" xml:space="preserve">
<style type="text/css">
	.st0{fill:#000000;}
</style>
<g id="XMLID_1_">
	<g id="XMLID_9_">
		<path id="XMLID_112_" class="st0" d="M9.5,10.8l0.1-0.2c0,0.1-0.1,0.3-0.1,0.5c0.6-1.9,1.5-4.2,2.3-5.7c0.3-0.5,0.6-1,0.6-1.1
			c0-0.1-0.3,0.3-0.6,0.8c-0.1,0.1-0.2,0.2-0.2,0.3c-0.5,0.7-1,1.7-1.4,2.8l0.3-0.6c-0.1,0.3-0.3,0.6-0.4,1L10,8.4
			C9.5,9.5,9,11,8.9,11.8c-0.1,0.8,0,0.5,0.4-0.6L9.5,10.8z"/>
		<path id="XMLID_111_" class="st0" d="M10.3,8.8c-0.3,0.6-0.5,1.2-0.7,1.9l0,0.1l0.1,0l0,0c0.1-0.6,0.4-1.6,0.8-2.5L10.5,8
			c0.1-0.2,0.1-0.3,0.1-0.3c0-0.1-0.1,0.2-0.3,0.6l-0.2,0.5c-0.5,1.1-1,3-1,3.7c0,0.2,0,0,0.1,0c0,0.1,0.2-0.4,0.3-1
			c0.2-0.6,0.3-1.1,0.3-1.1L9.8,10l-0.1,0.2c0-0.2,0.2-0.7,0.3-1.1c0.1-0.2,0.1-0.4,0.2-0.6l-0.2,0.3L10,9.2c0,0,0-0.1,0-0.1
			c-0.2,0.6-0.3,1.1-0.5,1.8c-0.1,0.3-0.1,0.5-0.2,0.8c0,0.2,0,0.2,0.1,0l0.1-0.4l-0.1,0.2c0.2-0.8,0.5-1.7,0.8-2.5
			c0.1-0.1,0.1-0.3,0.1-0.3C10.4,8.6,10.4,8.7,10.3,8.8"/>
		<path id="XMLID_110_" class="st0" d="M9.4,11.7c0,0.1-0.1,0.3-0.1,0.5c0,0,0,0.1,0,0.1c0-0.1,0-0.2,0.1-0.3
			C9.4,11.8,9.4,11.7,9.4,11.7"/>
		<path id="XMLID_100_" class="st0" d="M10.6,10.3l0-0.4L10.6,10.3L10.6,10.3z M9.8,10.8c0,0.1,0,0.1,0,0.1
			C9.8,10.8,9.8,10.8,9.8,10.8 M9.5,11.7l0-0.1L9.5,11.7z M9.6,11.5L9.6,11.5L9.6,11.5C9.6,11.4,9.6,11.4,9.6,11.5 M11.3,6.6
			c0.2-0.3,0.4-0.6,0.5-0.8c0.1-0.2,0.3-0.5,0.4-0.7c0.4-0.6,0.8-1.2,1.2-1.7c-0.1,0.1,0-0.1,0.1-0.1L13.7,3
			c-0.5,0.6-0.9,1.2-1.4,1.8C12,5.4,11.6,6.1,11.3,6.6 M22.3,15.3c0.3-1.4,0.6-2.9,0.7-4.3L22.9,12C22.8,13.1,22.6,14.2,22.3,15.3
			 M11,8L11,8c-0.1,0.1-0.1,0.2-0.1,0.2C10.9,8.1,11,8.1,11,8 M12.9,4.2L12.9,4.2L13,4.1c0,0,0,0,0.2-0.3C13.2,3.8,13,4,12.9,4.2
			 M9.4,18.5c0,0.4,0,0.7,0.1,1l0,0.2c0,0,0,0,0,0.2c0.3,2.4,1.1,5.7,3.6,6.2c0,0,0,0,0.1,0c0.2,0,0.5,0,0.8-0.1l0.3,0
			c1-0.3,2-1,2.8-1.9c0.2-0.2,0.3-0.4,0.5-0.6c0.6-0.8,1.1-1.7,1.6-2.6c0,0.1-0.1,0.1-0.1,0.1c0,0,0.1-0.2,0.2-0.5l0.2-0.4
			c-0.2,0.4-0.4,0.7-0.6,1.1l-0.1,0.1c-0.2,0.4-0.4,0.8-0.7,1.1c-1.1,1.6-2.5,3.2-4.1,3.5c-1.7,0.4-3.1-1.2-3.7-2.9
			c0-0.1-0.1-0.1-0.1-0.2c0,0,0,0,0,0c0.8,2.2,2.6,3.8,4.7,2.5c2.5-1.5,4-4.5,5.1-7.5c1.1-3.2,1.6-6.4,1.4-9.8
			c-0.2-2.2-0.8-4.6-2.1-5.7c-1.3-1.1-3.3-0.1-4.6,1.6c-1,1.3-1.8,2.6-2,2.7c-0.1,0.1,0-0.3,0.3-0.9l-0.2,0.4l-0.3,0.6
			c-0.3,0.5-0.5,1-0.7,1.3l-0.2,0.4c-0.3,0.5-0.7,1.5-1,1.9l0-0.1l0,0.1c-0.1,0.4-0.2,0.6-0.3,0.7l0,0c0-0.1,0-0.3,0-0.6
			c0,0,0,0,0-0.1c-0.1,0.3-0.2,0.4-0.2,0.1c-0.1,0.2-0.1,0.1,0-0.1l0.1-0.2l0,0c0,0.1,0,0.1-0.1,0.2c0,0.2-0.1,0.3-0.1,0.3
			c-0.1,0.4-0.1,0.4-0.2,0.8c-0.1,0.3-0.2,0.5-0.2,0.5c-0.2,0.3-0.2,0.3-0.2,0.3l0-0.1c-0.1,0.3-0.1,0.3-0.1,0.4c0,0.1,0,0.1,0,0.1
			c0,0,0,0,0,0.1c0,0,0,0,0,0c0-0.2,0-0.2,0-0.2c0,0,0-0.1,0-0.1c0-0.2,0.1-0.3,0.1-0.3c0.1-0.4,0.1-0.4,0.1-0.4l0-0.1l0-0.1l0,0
			c0.1-0.2,0.1-0.2,0.1-0.2c-0.1,0.2-0.1,0.2-0.1,0.2c0.1-0.5,0.1-0.5,0.2-0.7c0.1-0.2,0.1-0.4,0.1-0.4l0,0c0.1-0.5,0.2-0.5,0.3-1
			l0.1-0.1c0,0,0-0.1,0.1-0.2l0.1-0.3l0-0.1l0,0c0-0.1,0.1-0.1,0.1-0.2c0,0,0,0,0,0l0,0c0.1-0.2,0.1-0.4,0.3-0.9l0.2-0.4l-0.1,0.1
			c0,0.1,0,0,0,0c-0.5,1-0.9,2.2-1.3,3.4c-0.1,0.2-0.1,0.4-0.1,0.4c0,0,0-0.1,0.1-0.3c0.6-2.4,1.8-5.3,3.4-7.4
			c0.4-0.5,0.9-1.1,1.4-1.6l-0.1,0.1l0.4-0.4l0,0L14.3,2l-0.2,0.2c-1.2,1.2-2,2.4-2.8,3.7c-0.4,0.7-0.7,1.4-1,2.1
			c-0.1,0.2-0.1,0.3-0.1,0.3c0,0,0.1-0.2,0.1-0.4c1-2.4,2.6-5.1,4.4-6.4c0.4-0.3,0.8-0.6,1.2-0.8l0,0l-0.3,0.1
			c0.4-0.2,0.5-0.3,0.9-0.4l-0.1,0c0.9-0.4,2.1-0.5,3.1,0c1,0.4,1.7,1.2,2.1,2c0,0.1,0.1,0.1,0.1,0.2c0.4,0.6,0.7,1.3,0.9,2.2
			c-0.1-0.3-0.1-0.6-0.3-0.8c0.2,0.6,0.4,1.2,0.5,1.8c0.4,1.8,0.3,3.7,0.2,4.7c-0.2,3.4-0.9,6.7-2.3,9.8c-0.1,0.2-0.1,0.3-0.2,0.3
			c0,0,0-0.1,0.1-0.3c1-2.2,1.6-4.6,2-7c-0.3,2-0.9,4-1.7,5.9c-0.1,0.2-0.2,0.5-0.3,0.7l-0.3,0.7c-1.2,2.3-2.6,4.7-5.3,6
			c-1.2,0.5-2.6,0.5-3.7-0.3c-1-0.7-1.7-1.8-2.1-2.9c-1.2-3.2-1.1-6.3-0.7-9.5c0.1-0.4,0.2-0.8,0.2-0.9c0,0,0,0.3-0.1,0.7
			c-0.5,3.3-0.5,6.8,0.8,10c0.6,1.5,2.2,3.3,4.2,3c1.9-0.2,3.3-1.6,4.4-2.9c0.5-0.6,0.9-1.2,1.3-1.9l0,0c0,0,0-0.1,0.1-0.2
			c-0.4,0.7-0.9,1.4-1.4,2.1c-0.7,0.9-1.6,1.8-2.8,2.4c-1.1,0.6-2.7,0.7-3.9-0.2C10,25.2,9.5,23.5,9.1,22c-0.5-2-0.5-4-0.4-6.1
			c0-0.1,0-0.2,0-0.2c0,0,0,0,0,0.1c-0.1,1.4-0.1,2.8,0.1,4.3c0-0.2,0-0.4,0-0.4c0,0,0.1,0.2,0.1,0.5l-0.1-1c0-0.2,0-0.4,0-0.4
			c0,0,0,0.2,0,0.4c0.1,1.3,0.3,2.7,0.7,3.9c0.5,1.5,1.5,3.1,3.2,3.4c-0.2-0.1-0.4-0.1-0.4-0.2h0c-0.2-0.1-0.5-0.2-0.7-0.4
			C9.9,24.7,9.3,22.2,9,20c-0.2-2.3,0-4.6,0.4-6.9c0-0.1,0-0.2,0-0.2c0,0,0,0.1,0,0.2C9.2,14.4,9,15.8,9,17.2l0,0c0-0.1,0-0.1,0,0
			c0,0.1,0,0.2,0,0.2c0,0.1,0,0.1,0,0c0,2.6,0.2,5.3,1.7,7.5c-1.3-2-1.6-4.5-1.6-6.8l0-0.8c0-0.1,0-0.2,0-0.2c0,0,0,0,0,0.1l0,0.2
			c0-0.4,0.1-0.8,0.1-0.8c0,0,0,0.4,0,0.9c0,1.2,0,2.5,0.3,3.7l0.1,0.4L9.6,22c-0.4-1.9-0.5-3.8-0.3-5.7c0-0.2,0-0.3,0-0.3
			c0,0,0,0.1,0,0.3c-0.1,3.2,0,7,2.4,9.4c0.8,0.7,2,0.8,2.9,0.4c-0.1,0-0.2,0.1-0.4,0.1c-1.7,0.4-3.1-0.8-3.8-2.3
			c-0.7-1.5-1-3.1-1.1-4.9c0-0.1,0-0.2,0-0.2c0,0,0,0.1,0,0.1c0.1,1.7,0.4,3.3,1.1,4.8c0.6,1.2,1.5,2.3,2.7,2.4
			c-2.5-0.5-3.4-3.6-3.7-6.1c0-0.1,0-0.2,0-0.3c0,0,0,0,0-0.1c0-0.3-0.1-0.7-0.1-1.1C9.4,18.5,9.4,18.4,9.4,18.5
			C9.4,18.4,9.4,18.4,9.4,18.5"/>
		<path id="XMLID_99_" class="st0" d="M15,9.4L15,9.4C15,9.4,15,9.3,15,9.4c0.2,0.5,0.6,1.2,0.9,1.6c0.1,0.2,0.2,0.3,0.2,0.3
			c0,0,0-0.1-0.1-0.3l0-0.1c-0.1-0.3-0.2-0.6-0.4-0.9l0.1,0.2l-0.2-0.3l0,0c-0.1-0.3-0.4-0.8-0.6-0.9c-0.2-0.2-0.2,0-0.1,0.3L15,9.4
			z"/>
		<path id="XMLID_98_" class="st0" d="M15.2,10l-0.3-0.6l0,0l0,0l0,0c0.1,0.1,0.3,0.4,0.5,0.7l0.1,0.1c0,0,0.1,0.1,0.1,0.1
			c0,0,0-0.1-0.1-0.2l-0.1-0.1c-0.2-0.4-0.5-0.9-0.7-1c0,0,0,0-0.1,0c0,0,0,0.1,0.1,0.3C14.8,9.5,15,9.6,15,9.6l0,0.1l0-0.1
			c0.1,0,0.1,0.2,0.2,0.3l0.1,0.2l0-0.1l-0.1-0.1l0,0l-0.4-0.5l-0.2-0.2c-0.1-0.1-0.1,0,0,0l0.1,0.1l0-0.1L15.2,10
			C15.1,10,15.2,10.1,15.2,10C15.2,10.1,15.2,10.1,15.2,10"/>
		<path id="XMLID_97_" class="st0" d="M14.7,9.2c0,0,0-0.1-0.1-0.1l0,0L14.7,9.2C14.6,9.2,14.7,9.2,14.7,9.2"/>
		<path id="XMLID_96_" class="st0" d="M14.6,9.1C14.6,9.1,14.6,9,14.6,9.1L14.6,9.1L14.6,9.1L14.6,9.1z"/>
		<path id="XMLID_86_" class="st0" d="M14.3,10.1l0.1,0L14.3,10.1L14.3,10.1z M14.7,9.6L14.7,9.6C14.7,9.6,14.7,9.6,14.7,9.6
			 M14.6,9.3L14.6,9.3L14.6,9.3z M14.7,9.3L14.7,9.3L14.7,9.3C14.7,9.4,14.7,9.3,14.7,9.3 M15.5,10.7c0,0.1,0.1,0.2,0.1,0.3l0.1,0.2
			c0.1,0.2,0.2,0.4,0.3,0.6c0,0,0,0,0,0l0,0.1c-0.1-0.2-0.2-0.4-0.3-0.6L15.5,10.7z M17.8,18.5c0-0.5-0.1-0.9-0.1-1.4l0,0.3
			C17.8,17.8,17.8,18.1,17.8,18.5 M15,10.5L15,10.5C15,10.4,15,10.4,15,10.5L15,10.5z M15.8,11.6L15.8,11.6L15.8,11.6
			c0,0.1,0,0.1,0,0.2C15.8,11.7,15.8,11.7,15.8,11.6 M13.9,24.8c0.1,0,0.2-0.1,0.3-0.1l0,0c0,0,0,0,0,0c0.7-0.4,1.3-0.9,1.7-1.6l0,0
			c0-0.1,0.1-0.2,0.1-0.3l0-0.1c0.2-0.3,0.3-0.6,0.4-1c0-0.1,0-0.2,0-0.2c0-0.3,0.1-0.6,0.1-0.9c0,0,0,0,0,0c0,0,0-0.1,0-0.2l0-0.1
			l-0.1,0.4l0,0c0,0.1,0,0.3-0.1,0.4c-0.3,1.2-0.7,2.2-1.5,3l-0.1,0c0,0,0,0,0,0c0.5-0.5,0.7-1,1-1.7c0.3-0.9,0.4-1.8,0.4-2.7
			c0-1-0.1-2-0.3-3c-0.3-1.4-0.7-2.7-1.3-3.9c-0.2-0.5-0.4-0.9-0.3-1c0-0.1,0.1,0,0.3,0.2l-0.1-0.1l-0.1-0.2
			c-0.1-0.2-0.1-0.3-0.2-0.4l0-0.1c0-0.2-0.1-0.5-0.1-0.7l0,0l0,0c0-0.1-0.1-0.2,0-0.3l0,0c0.1,0,0.1,0,0.2,0.1c0,0,0,0,0.1,0
			c0-0.1,0-0.2,0.1-0.1c0-0.1,0-0.1,0,0l0,0.1v0c0,0,0,0,0-0.1c0,0,0-0.1,0-0.1c-0.1-0.1-0.1-0.1-0.1-0.2c0-0.1-0.1-0.2-0.1-0.2
			c0-0.1,0-0.1,0-0.1l0,0c0-0.1,0-0.1-0.1-0.1c0,0,0,0,0,0l0,0l0,0c0,0,0,0,0,0l0,0c0,0,0.1,0.1,0.1,0.1c0,0.1,0,0.1,0,0.1
			c0,0,0,0,0,0v0l0,0c0,0.1,0,0.1,0,0.1c0-0.1,0-0.1,0-0.1c0.1,0.1,0.1,0.1,0.1,0.2c0,0.1,0.1,0.1,0.1,0.1l0,0
			c0.1,0.1,0.1,0.1,0.2,0.3l0,0c0,0,0,0,0,0.1l0,0.1l0,0l0,0l0,0.1l0,0l0,0c0,0,0.1,0.1,0.2,0.3l0.1,0.1l0,0c0,0,0,0,0,0
			c-0.2-0.3-0.3-0.7-0.5-1c0-0.1-0.1-0.1-0.1-0.1c0,0,0,0,0.1,0.1c0.5,0.6,1,1.5,1.3,2.2l0.2,0.6l0,0l0.1,0.2l0,0l0-0.1l0-0.1
			c-0.2-0.5-0.4-0.9-0.5-1.3c-0.1-0.2-0.2-0.5-0.3-0.7c0-0.1,0-0.1,0-0.1c0,0,0.1,0,0.1,0.1c0.4,0.7,0.8,1.6,1,2.2
			c0.1,0.1,0.1,0.3,0.1,0.4l0,0l0-0.1c0,0.1,0,0.2,0.1,0.3l0,0c0.2,0.5,0.4,1.1,0.5,1.6l0,0.1c0.1,0.2,0.2,0.4,0.2,0.7l-0.1-0.3
			c0.1,0.2,0.1,0.4,0.2,0.6c0.1,0.5,0.2,1.2,0.1,1.5c0.1,1.1,0.2,2.2,0.1,3.2c0,0.1,0,0.1,0,0.1c0,0,0,0,0-0.1c0.1-0.8,0-1.6,0-2.4
			c0,0.7,0,1.3,0,2l0,0.3l0,0.3c-0.1,0.9-0.3,1.7-0.7,2.5c-0.3,0.7-0.7,1.3-1.3,1.9c-0.9,0.8-1.9,1.2-3.1,1.2c-0.2,0-0.3,0-0.3,0
			c0,0,0.1-0.1,0.2-0.1c2.4,0,4.3-2.1,4.8-4.2c0.1-0.2,0.1-0.5,0.2-0.7l0,0c0,0,0,0,0-0.1c0,0.3-0.1,0.5-0.2,0.8
			c-0.2,0.7-0.5,1.5-1,2.2c-0.4,0.5-0.8,0.8-1.2,1.1c-0.5,0.4-1.2,0.6-1.9,0.8c0,0-0.1,0-0.1,0c0,0,0,0,0,0c0.5-0.1,0.9-0.2,1.4-0.5
			c-0.1,0-0.1,0-0.1,0c0,0,0-0.1,0.1-0.1l-0.3,0.1c-0.1,0-0.1,0-0.1,0c0,0,0,0,0.1-0.1c0.4-0.1,0.8-0.4,1.1-0.6
			c0.4-0.3,0.7-0.7,1-1.2c-0.1,0-0.1,0.1-0.1,0.1l0,0l-0.1,0.2c-0.8,1.2-2.3,1.9-3.8,1.8c0,0-0.1,0-0.1,0c0,0,0,0,0,0
			c0.5,0,0.9,0,1.3-0.1h0c0,0,0,0,0,0l0.1,0c0,0,0,0,0,0c0.8-0.2,1.6-0.7,2.1-1.3c-0.5,0.6-1.2,0.9-1.9,1.2l-0.2,0.1
			c0,0-0.1,0-0.1,0c0,0,0,0,0,0l0.1,0c-0.1,0-0.3,0-0.3,0c0,0,0.1-0.1,0.3-0.1c0.4-0.1,0.7-0.3,1.1-0.4l0.1-0.1l0.1-0.1
			c-0.5,0.3-1.1,0.5-1.6,0.6c0,0-0.1,0-0.1,0c0,0,0,0,0.1,0c1-0.2,1.9-0.8,2.5-1.6c0.2-0.3,0.3-0.6,0.4-0.9l-0.1,0.1
			c-0.5,1-1.1,1.7-2.1,2.1C14,24.8,14,24.8,13.9,24.8c0.1,0,0.1,0,0.1,0c0.5-0.2,0.9-0.5,1.2-0.8c0.3-0.3,0.5-0.6,0.7-1
			c-0.4,0.7-1,1.2-1.7,1.6l-0.1,0l0,0L13.9,24.8L13.9,24.8C13.8,24.8,13.8,24.8,13.9,24.8"/>
		<path id="XMLID_76_" class="st0" d="M10.2,25.3l-0.3,0L10.2,25.3L10.2,25.3z M10.4,26L10.4,26C10.4,26,10.4,26,10.4,26 M11.1,26.2
			L11.1,26.2L11.1,26.2z M10.9,26.2L10.9,26.2C11,26.2,11,26.2,10.9,26.2C10.9,26.2,10.9,26.2,10.9,26.2 M7.8,24.9
			c-0.2-0.2-0.3-0.3-0.5-0.4l-0.4-0.3c-0.4-0.3-0.7-0.6-1-0.9c0,0.1,0,0-0.1-0.1l-0.1-0.1c0.3,0.4,0.7,0.7,1,1
			C7.1,24.4,7.5,24.7,7.8,24.9 M0.1,10.7c0,1,0.1,1.9,0.3,2.8c-0.1-0.2-0.1-0.5-0.1-0.7C0.2,12.2,0.1,11.4,0.1,10.7 M8.7,25.1
			L8.7,25.1c0.1,0,0.1,0.1,0.1,0.1L8.7,25.1z M6.4,23.6L6.4,23.6L6.4,23.6c-0.1-0.1-0.1-0.1-0.2-0.3C6.2,23.4,6.3,23.5,6.4,23.6
			 M11.3,7.4c-0.2-0.2-0.3-0.3-0.5-0.4l-0.1-0.1c0,0,0,0-0.1-0.1c-1.3-1-2.8-1.9-4.5-2.1c0,0,0,0-0.1,0c-0.1,0-0.3,0-0.6,0l-0.2,0
			c-0.7,0-1.4,0.2-2,0.5C3.2,5.3,3.1,5.4,3,5.5C2.5,6,2.2,6.4,1.9,7c0,0,0-0.1,0,0c0,0,0,0.1-0.1,0.3L1.8,7.5C1.8,7.3,2,7.1,2.1,6.9
			l0-0.1c0.1-0.2,0.3-0.4,0.4-0.7c1.5-1.9,4.2-1.6,6.2-0.4c0,0,0.1,0,0.1,0.1c0,0,0,0,0,0C7.6,5.1,6.3,4.7,4.8,5
			C3,5.3,2,6.9,1.7,8.8c-0.3,2,0,4,0.7,6c0.9,2.8,2.4,5.2,4.4,7.2c0.8,0.7,1.5,1.4,1.5,1.5c0,0.1-0.2,0-0.6-0.2l0.2,0.2
			c0.1,0.1,0.2,0.2,0.3,0.2C8.6,24,8.9,24.2,9,24.4l0.2,0.2c0.3,0.3,0.8,0.6,1.1,0.8l-0.1,0l0.1,0c0.2,0.1,0.4,0.2,0.4,0.2l0,0
			c-0.1,0-0.2,0-0.4,0c0,0,0,0-0.1,0c0.2,0.1,0.2,0.2,0.1,0.2c0.1,0,0.1,0.1,0,0l-0.1,0l0,0c0.1,0,0.1,0,0.1,0.1
			c0.1,0,0.2,0.1,0.2,0.1c0.3,0.1,0.3,0.1,0.5,0.2c0.2,0,0.3,0.1,0.3,0.1c0.2,0.1,0.2,0.1,0.2,0.1l0,0c0.2,0,0.2,0,0.3,0.1
			c0.1,0,0.1,0,0.1,0c0,0,0,0,0,0l0,0c-0.1,0-0.1,0-0.1,0c0,0-0.1,0-0.1,0c-0.1,0-0.2,0-0.2,0c-0.3-0.1-0.3-0.1-0.3-0.1
			c-0.1,0-0.1,0-0.1,0c-0.1,0-0.1,0-0.1,0c0,0,0,0,0,0c-0.1,0-0.1,0-0.1,0c0.2,0,0.2,0,0.2,0c-0.3-0.1-0.3-0.1-0.5-0.1
			c-0.1,0-0.2-0.1-0.3-0.1l0,0c-0.3-0.1-0.3-0.1-0.7-0.2l-0.1,0c0,0-0.1,0-0.2-0.1l-0.2-0.1l0,0v0l-0.1-0.1c0,0,0,0,0,0l0,0
			c-0.1,0-0.2-0.1-0.6-0.3c-0.1,0-0.2-0.1-0.3-0.2l0.1,0.1c0,0,0,0,0,0c0.6,0.4,1.4,0.8,2.2,1c0.1,0.1,0.3,0.1,0.3,0.1
			c0,0-0.1,0-0.2,0c-1.7-0.3-3.5-1.5-4.6-2.7l-0.9-1l0,0.1l-0.2-0.3l0,0L5,22.7l0.1,0.1c0.7,0.8,1.4,1.4,2.2,2
			c0.5,0.3,0.8,0.6,1.3,0.9c0.1,0.1,0.2,0.1,0.2,0.1c0,0-0.1,0-0.3-0.1c-1.6-0.8-3-2.2-3.8-3.3c-0.2-0.2-0.4-0.5-0.5-0.7l0,0L4.3,22
			c-0.1-0.2-0.2-0.3-0.3-0.5l0,0.1c-0.7-0.9-1.3-1.9-1.8-2.9l-0.1-0.1c-0.2-0.4-0.5-0.8-0.7-1.3l0.2,0.5c-0.2-0.4-0.3-0.7-0.5-1.1
			c-0.4-1.1-0.7-2.3-0.8-2.9c-0.5-2.1-0.6-4.4,0.1-6.6c0-0.1,0.1-0.2,0.1-0.2c0,0,0,0.1,0,0.2C0,8.8,0,10.4,0.2,12
			C0,10.7,0.1,9.3,0.4,8c0-0.2,0.1-0.3,0.1-0.5L0.8,7c0.6-1.7,2.2-3.1,4.1-3.3c1.6-0.1,3,0.3,4.4,1c1.9,1.1,3.3,2.4,4.6,4.1
			C14,9,14.1,9.3,14.1,9.3c0,0-0.1-0.1-0.3-0.3c-1.3-1.7-2.9-3.2-4.9-4.3c-1.9-1-4.6-1.5-6.6,0.1C2,5.2,1.6,5.5,1.3,6l0,0
			c0,0,0,0.1,0,0.1C1.6,5.6,2,5.2,2.5,4.8C3.7,3.7,5.6,3.5,7.2,4c1.1,0.3,2,0.9,2.8,1.5c1.1,0.7,2,1.6,2.9,2.6c0,0,0.1,0.1,0.1,0.1
			c0,0,0,0,0,0c-0.6-0.7-1.3-1.3-2-1.9c0.1,0.1,0.2,0.2,0.1,0.2c0,0-0.1,0-0.3-0.1c0.2,0.1,0.3,0.3,0.5,0.4c0.1,0.1,0.2,0.2,0.2,0.2
			c0,0-0.1-0.1-0.2-0.1c-0.6-0.6-1.3-1.1-2-1.5C8.3,4.7,7.3,4.3,6.3,4.1c0.1,0,0.2,0.1,0.3,0.1v0l0.5,0.1c2.8,0.8,5.1,3,6.8,5.4
			c0,0,0.1,0.1,0.1,0.1c0,0,0,0-0.1-0.1c-0.5-0.7-1.1-1.5-1.7-2.1l0,0c0,0,0,0,0,0c0,0-0.1-0.1-0.1-0.1c0,0,0,0,0,0
			c-1.1-1.2-2.5-2.2-4-2.9c1.4,0.6,2.6,1.6,3.7,2.6l0.4,0.3c0,0,0.1,0.1,0.1,0.1c0,0,0,0-0.1,0L12,7.6C12.2,7.8,12.3,8,12.3,8
			c0,0-0.2-0.2-0.4-0.4c-0.5-0.6-1.1-1.1-1.8-1.6L9.9,5.9L9.7,5.8c1,0.7,1.9,1.6,2.7,2.5c0.1,0.1,0.1,0.2,0.1,0.2
			c0,0-0.1-0.1-0.1-0.1c-1.4-1.6-3.1-3-5.2-3.6C6.5,4.5,5.8,4.5,5.1,4.5l0.3,0c2.2,0.1,4.1,1.1,5.8,2.6c0,0,0.1,0.1,0.1,0.1
			c0,0,0,0-0.1-0.1c-0.8-0.7-1.6-1.3-2.6-1.8C7.7,5,6.9,4.7,6.1,4.6c1.6,0.2,3.1,1.1,4.4,2.1c0.1,0,0.1,0.1,0.1,0.1l0,0
			C10.9,7,11.1,7.2,11.3,7.4C11.3,7.4,11.3,7.4,11.3,7.4C11.3,7.5,11.3,7.4,11.3,7.4"/>
		<path id="XMLID_66_" class="st0" d="M18.9,4L19,3.7L18.9,4L18.9,4z M18.2,3.7L18.2,3.7C18.2,3.7,18.2,3.7,18.2,3.7 M17.7,4.1
			L17.7,4.1L17.7,4.1z M17.8,3.9L17.8,3.9L17.8,3.9C17.8,3.9,17.8,3.9,17.8,3.9 M20.5,2.2c0.2-0.1,0.4-0.1,0.6-0.1L21.7,2
			c0.5,0,1,0,1.4,0.1c-0.1,0,0.1,0,0.1,0l0.2,0C22.9,2,22.4,2,21.9,2C21.4,2,20.9,2.1,20.5,2.2 M25.4,14.5c0.3-0.9,0.5-1.7,0.7-2.6
			l-0.1,0.6C25.8,13.3,25.6,13.9,25.4,14.5 M19.8,2.9L19.8,2.9c-0.1,0-0.1,0-0.1,0L19.8,2.9z M22.4,2.1L22.4,2.1l0.1,0
			c0,0,0,0,0.2,0.1C22.7,2.2,22.5,2.1,22.4,2.1 M16.3,26.3c0.2-0.1,0.4-0.2,0.5-0.3l0.1,0c0,0,0,0,0.1-0.1c1.2-0.9,2.4-2.1,3.4-3.5
			l0-0.1c0.1-0.1,0.2-0.3,0.3-0.5l0.1-0.1c0.4-0.6,0.8-1.2,1.2-1.8c0.1-0.1,0.1-0.3,0.2-0.4c0.3-0.6,0.5-1.1,0.8-1.7
			c0,0,0,0.1,0,0.1c0,0,0-0.2,0.1-0.3l0.1-0.2l-0.3,0.7l0,0.1l-0.4,0.7c-1.1,2.2-2.4,4.1-4,5.8l-0.1,0.1c0,0,0,0,0,0
			c1-1,1.7-2.1,2.5-3.5c1-1.6,1.8-3.4,2.5-5.2c0.7-1.9,1.2-3.8,1.4-5.8c0.2-2.6-0.1-5.8-2-6.5c-0.6-0.2-1.4-0.1-1.6-0.1
			c-0.1,0,0.1-0.2,0.4-0.3l-0.2,0c-0.1,0-0.2,0.1-0.3,0.1c-0.3,0.1-0.6,0.2-0.8,0.2L20,3.6c-0.3,0.1-0.9,0.4-1.2,0.5l0-0.1l-0.1,0
			c-0.2,0.1-0.4,0.2-0.4,0.2l0,0c0-0.1,0.1-0.2,0.2-0.3c0,0,0,0,0-0.1c-0.2,0.1-0.3,0.1-0.2,0c-0.1,0.1-0.1,0,0-0.1l0.1-0.1l0,0
			c-0.1,0-0.1,0-0.1,0.1c-0.1,0.1-0.1,0.1-0.1,0.1c-0.2,0.2-0.2,0.2-0.4,0.3c-0.2,0.1-0.3,0.2-0.3,0.2c-0.2,0.1-0.2,0.1-0.2,0.1l0,0
			c-0.1,0.1-0.2,0.1-0.2,0.2c0,0-0.1,0-0.1,0c0,0,0,0,0,0l0,0c0.1-0.1,0.1-0.1,0.1-0.1c0,0,0,0,0,0c0.1-0.1,0.1-0.1,0.1-0.1
			c0.2-0.1,0.2-0.1,0.2-0.1l0,0l0.1,0c0,0,0,0,0,0L17.7,4C17.6,4,17.6,4,17.6,4c0.2-0.2,0.2-0.2,0.3-0.3c0.1-0.1,0.2-0.1,0.2-0.2
			l0,0c0.3-0.2,0.3-0.2,0.5-0.4l0.1,0c0,0,0.1-0.1,0.1-0.1L19,3l0,0l0,0l0.1-0.1c0,0,0,0,0,0l0,0c0.1,0,0.2-0.2,0.5-0.3L20,2.4
			l-0.1,0c-0.1,0,0,0,0,0c-0.7,0.3-1.3,0.7-2,1.2c-0.1,0.1-0.2,0.2-0.2,0.2c0,0,0-0.1,0.1-0.2c1.1-1,3-2.2,4.9-1.8
			c0.5,0.1,0.9,0.3,1.4,0.6l-0.1,0c0.1,0.1,0.2,0.1,0.3,0.2l0,0c-0.1-0.1-0.1-0.1-0.2-0.2L24,2.3c-1-0.6-2.1-0.7-3.1-0.4
			c-0.6,0.1-1,0.3-1.5,0.5c-0.1,0.1-0.2,0.1-0.2,0.1c0,0,0.1-0.1,0.2-0.1c1.4-0.9,4-1.1,5.1,0.2C24.8,2.8,25,3,25.2,3.2l0,0
			l-0.1-0.2c0.1,0.2,0.2,0.3,0.3,0.5l0-0.1c0.6,1,0.9,2.2,1,3.3l0,0.1c0.1,0.4,0.1,0.9,0.1,1.4c0-0.2,0-0.3,0-0.5c0,0.4,0,0.7,0,1.1
			c0,1.1-0.2,2.3-0.4,2.8c-0.3,2-0.9,4-1.7,5.9c0,0.1-0.1,0.2-0.1,0.2c0,0,0-0.1,0-0.2c0.5-1.4,1-2.8,1.4-4.2
			c-0.3,1.2-0.7,2.4-1.2,3.6l-0.2,0.5l-0.2,0.4c-0.7,1.5-1.4,2.8-2.3,4.2c-0.8,1.2-1.6,2.2-2.6,3.2c-1.4,1.3-3.1,2.7-5.5,2.6
			c-0.3,0-0.6-0.2-0.6-0.2c0,0,0.2,0,0.5,0.1c2.5,0.2,4.2-1.3,5.7-2.7c1.5-1.5,2.6-3.2,3.6-5c0.2-0.4,0.4-0.8,0.6-1.2l0,0
			c0,0,0-0.1,0-0.1c-0.2,0.4-0.5,0.9-0.7,1.4c-0.7,1.3-1.4,2.5-2.4,3.7c-0.7,0.8-1.4,1.5-2.1,2.1c-1,0.8-2,1.5-3.4,1.8
			c-0.1,0-0.1,0-0.1,0c0,0,0,0,0.1,0c0.9-0.2,1.7-0.6,2.5-1.1c-0.1,0.1-0.2,0.1-0.2,0.1c0,0,0.1-0.1,0.2-0.2
			c-0.2,0.1-0.3,0.2-0.5,0.3c-0.1,0.1-0.2,0.1-0.2,0.1c0,0,0.1-0.1,0.2-0.1c0.7-0.4,1.4-0.9,2-1.5c0.7-0.7,1.3-1.4,1.9-2.2
			c-0.1,0.1-0.2,0.2-0.2,0.2h0l-0.3,0.4c-1.6,2-4,4.5-7.1,3.7c-0.1,0-0.1,0-0.1,0c0,0,0,0,0.1,0c0.8,0.3,1.8,0.2,2.6,0l0,0
			c0,0,0,0,0,0l0.1,0c0,0,0,0,0,0c1.5-0.6,2.7-1.7,3.7-2.8c-1,1-2.1,2-3.4,2.6L15.8,27c0,0-0.1,0-0.1,0c0,0,0,0,0.1,0l0.1-0.1
			C15.6,27,15.4,27,15.4,27c0,0,0.2-0.1,0.5-0.2c0.7-0.3,1.3-0.7,1.9-1.1l0.2-0.2l0.2-0.2c-0.9,0.7-1.9,1.3-3,1.6
			c-0.1,0-0.2,0-0.2,0c0,0,0.1,0,0.2-0.1c2-0.5,3.5-2,4.8-3.5c0.4-0.5,0.8-1.1,1.1-1.7l-0.2,0.2c-1.3,1.8-2.5,3.3-4.3,4.4
			c0,0-0.1,0-0.1,0c0,0,0,0,0.1-0.1c0.9-0.5,1.6-1.1,2.3-1.9c0.6-0.6,1.1-1.3,1.6-1.9c-1,1.3-2,2.5-3.3,3.4c-0.1,0-0.1,0.1-0.2,0.1
			l0,0C16.7,26.1,16.6,26.2,16.3,26.3C16.3,26.4,16.3,26.4,16.3,26.3C16.2,26.4,16.3,26.4,16.3,26.3"/>
		<path id="XMLID_65_" class="st0" d="M11.7,12.8c0.4-1,0.9-2,1.4-2.9c0,0,0-0.1,0-0.1c0,0,0,0,0,0C12.5,10.9,12,11.8,11.7,12.8
			C11.6,12.8,11.6,12.9,11.7,12.8C11.6,12.9,11.7,12.9,11.7,12.8"/>
		<path id="XMLID_55_" class="st0" d="M12.4,26.1l-0.2,0L12.4,26.1L12.4,26.1z M12.2,26.7L12.2,26.7C12.2,26.7,12.2,26.7,12.2,26.7
			 M12.5,27L12.5,27L12.5,27z M12.4,27L12.4,27C12.4,27,12.4,27,12.4,27C12.4,27,12.4,27,12.4,27 M11,25.3c-0.1-0.2-0.1-0.3-0.1-0.4
			l-0.1-0.3c-0.1-0.3-0.2-0.6-0.2-0.8c0,0,0,0,0-0.1l0-0.1c0.1,0.3,0.1,0.6,0.2,0.9C10.8,24.8,10.8,25.1,11,25.3 M11,15.1
			c-0.2,0.6-0.3,1.1-0.5,1.7l0.1-0.4C10.8,16,10.9,15.5,11,15.1 M11.5,25.7L11.5,25.7C11.5,25.7,11.5,25.8,11.5,25.7L11.5,25.7z
			 M10.7,24.2L10.7,24.2L10.7,24.2c0-0.1,0-0.1,0-0.2C10.7,23.9,10.7,24,10.7,24.2 M16.2,6.7C16.1,6.8,16,6.9,16,7l0,0.1
			c0,0,0,0,0,0.1c-0.6,0.9-1.1,1.8-1.6,2.8l0,0c0,0.1-0.1,0.2-0.2,0.3L14,10.4c-0.2,0.4-0.4,0.8-0.7,1.3c0,0.1-0.1,0.2-0.1,0.3
			c-0.1,0.4-0.3,0.8-0.4,1.2c0,0,0,0,0,0c0,0,0,0.1-0.1,0.2l-0.1,0.2L13,13l0-0.1l0.2-0.5c0.6-1.5,1.3-2.8,2-4.1l0-0.1c0,0,0,0,0,0
			c-0.4,0.8-0.8,1.6-1.2,2.6c-0.5,1.1-0.9,2.3-1.3,3.5c-0.4,1.3-0.7,2.5-0.9,3.8c-0.3,1.8-0.3,3.5,0,5.2c0.1,0.6,0.3,1.1,0.2,1.2
			c0,0.1-0.1,0-0.3-0.3l0.1,0.1l0.1,0.2c0.1,0.2,0.2,0.4,0.2,0.5l0,0.2c0.1,0.2,0.2,0.6,0.3,0.7l-0.1,0l0,0c0.1,0.1,0.2,0.2,0.2,0.3
			l0,0c-0.1,0-0.1,0-0.3-0.1c0,0,0,0-0.1,0c0.1,0.1,0.1,0.2,0,0.2c0,0.1,0,0.1,0,0l-0.1-0.1l0,0c0,0,0,0,0.1,0.1
			c0.1,0,0.1,0.1,0.1,0.1c0.1,0.1,0.1,0.1,0.3,0.2c0.1,0.1,0.2,0.1,0.2,0.1c0.1,0.1,0.1,0.1,0.1,0.2l0,0c0.1,0.1,0.1,0.1,0.1,0.1
			c0,0,0.1,0,0.1,0c0,0,0,0,0,0v0c-0.1,0-0.1,0-0.1,0c0,0,0,0,0,0c-0.1,0-0.1-0.1-0.1-0.1c-0.1-0.1-0.1-0.1-0.1-0.1c0,0,0,0,0,0
			c0,0,0,0,0,0c0,0,0,0,0,0C12.4,27,12.4,27,12.4,27c0.1,0.1,0.1,0.1,0.1,0.1c-0.2-0.1-0.2-0.1-0.3-0.2c-0.1-0.1-0.1-0.1-0.1-0.1v0
			c-0.2-0.2-0.2-0.2-0.3-0.3l0,0c0,0,0,0-0.1-0.1l-0.1-0.1l0,0h0l-0.1-0.1l0,0l0,0c0-0.1-0.1-0.1-0.3-0.3l-0.1-0.2l0,0.1
			c0,0,0,0,0,0c0.2,0.4,0.6,0.9,1,1.3c0.1,0.1,0.2,0.1,0.2,0.1c0,0-0.1,0-0.2-0.1c-1-0.6-1.7-2-1.8-3c-0.1-0.3-0.1-0.6-0.2-0.8l0,0
			l0-0.2l0,0l0,0.2l0,0.1c0.1,0.6,0.2,1.2,0.5,1.9c0.1,0.3,0.3,0.6,0.4,0.9c0.1,0.1,0.1,0.1,0.1,0.1c0,0-0.1-0.1-0.1-0.1
			c-0.7-1-1-2.3-1-3.1c0-0.2,0-0.4,0-0.5l0,0l0,0.1c0-0.1,0-0.2,0-0.4l0,0.1c0-0.7-0.1-1.5,0-2.1l0-0.1c0-0.3,0-0.6,0-0.9l-0.1,0.3
			c0-0.2,0-0.5,0.1-0.7c0.1-0.7,0.3-1.4,0.4-1.8c0.3-1.3,0.7-2.6,1.1-3.8c0-0.1,0.1-0.1,0.1-0.1c0,0,0,0,0,0.1
			c-0.3,0.9-0.6,1.8-0.8,2.8c0.2-0.8,0.5-1.5,0.8-2.3l0.1-0.3l0.1-0.3c0.4-1,0.8-1.9,1.3-2.9c0.4-0.8,0.8-1.5,1.3-2.3
			c0.7-1.1,1.4-2.1,2.3-3c0.1-0.1,0.2-0.2,0.3-0.2c0,0,0,0.1-0.2,0.2c-1.8,2-3.1,4.3-4.3,6.8c-0.1,0.3-0.2,0.5-0.4,0.8l0,0
			c0,0,0,0,0,0.1c0.1-0.3,0.3-0.6,0.4-0.9c0.3-0.9,0.8-1.7,1.3-2.6c0.4-0.6,0.7-1.1,1.1-1.6c0.4-0.7,0.9-1.3,1.4-1.9
			c0,0,0,0,0.1-0.1c0,0,0,0,0,0c-0.3,0.4-0.7,0.9-1,1.4c0.1-0.1,0.1-0.1,0.1-0.1c0,0,0,0.1-0.1,0.2l0.2-0.3c0-0.1,0.1-0.1,0.1-0.1
			c0,0,0,0.1-0.1,0.1C15.3,7,15,7.5,14.7,7.9c-0.3,0.5-0.7,1.1-0.9,1.6c0.1-0.1,0.1-0.1,0.1-0.1h0l0.1-0.3c0.8-1.6,1.9-3.1,3.2-4.4
			c0,0,0,0,0.1,0c0,0,0,0,0,0c-0.4,0.4-0.8,0.8-1.1,1.2l0,0c0,0,0,0,0,0l-0.1,0.1c0,0,0,0,0,0c-0.6,0.8-1.2,1.6-1.7,2.5
			c0.5-0.8,1-1.6,1.6-2.3l0.2-0.2c0,0,0,0,0.1-0.1c0,0,0,0,0,0l-0.1,0.1c0.1-0.1,0.2-0.2,0.2-0.2c0,0-0.1,0.2-0.2,0.3
			c-0.3,0.4-0.6,0.8-0.9,1.2l-0.1,0.1l-0.1,0.1c0.4-0.6,0.9-1.2,1.4-1.8c0,0,0.1-0.1,0.1-0.1c0,0,0,0.1-0.1,0.1
			c-0.8,1-1.6,2.1-2.2,3.3l-0.5,1.2l0.1-0.2C14.6,9,15.2,7.9,16,6.7c0,0,0,0,0-0.1c0,0,0,0,0,0.1c-0.4,0.5-0.7,1.1-1.1,1.7
			c-0.3,0.5-0.5,1-0.8,1.4c0.5-0.9,1-1.8,1.6-2.7c0,0,0.1-0.1,0.1-0.1l0,0L16.2,6.7C16.1,6.7,16.2,6.6,16.2,6.7
			C16.2,6.6,16.2,6.6,16.2,6.7"/>
		<path id="XMLID_54_" class="st0" d="M5.4,14l0-0.2c0,0.1,0,0.3,0,0.5c0-1.9,0.2-4.4,0.5-6C6,7.7,6.2,7.2,6.2,7.1
			c0-0.1-0.2,0.3-0.3,0.9c0,0.1-0.1,0.3-0.1,0.4c-0.2,0.8-0.5,1.9-0.6,3c0-0.2,0.1-0.5,0.1-0.7c-0.1,0.3-0.1,0.7-0.1,1l0-0.1
			c-0.2,1.1-0.1,2.7,0,3.5c0.1,0.8,0.2,0.5,0.2-0.6L5.4,14z"/>
		<path id="XMLID_53_" class="st0" d="M5.6,11.9c-0.1,0.7-0.1,1.3-0.1,2l0,0.1l0.1,0l0,0c-0.1-0.6-0.1-1.6,0-2.5l0-0.3
			c0-0.2,0-0.3,0-0.3c0-0.1-0.1,0.2-0.1,0.6l0,0.5c-0.1,1.2-0.1,3.1,0.1,3.8c0,0.1,0,0,0.1,0c0,0,0-0.4,0-1c0-0.6,0-1.1-0.1-1.2
			l0-0.3l0,0.2c0-0.2,0-0.7,0-1.1c0-0.2,0-0.4,0-0.6l-0.1,0.3l0,0.3c0,0,0-0.1,0-0.1c0,0.6,0,1.2,0,1.8c0,0.3,0,0.6,0.1,0.8
			c0,0.2,0.1,0.2,0.1,0l0-0.4l0,0.2c0-0.9,0-1.8,0.1-2.6c0-0.1,0-0.3,0-0.4C5.6,11.8,5.6,11.8,5.6,11.9"/>
		<path id="XMLID_52_" class="st0" d="M5.6,15c0,0.1,0,0.3,0,0.5c0,0,0,0.1,0,0.1c0-0.1,0-0.2,0-0.3C5.6,15,5.6,14.9,5.6,15"/>
		<path id="XMLID_51_" class="st0" d="M5.6,15.5c0,0.1,0,0.1,0,0.1L5.6,15.5C5.6,15.5,5.6,15.5,5.6,15.5L5.6,15.5z"/>
		<path id="XMLID_50_" class="st0" d="M19.2,19.3c-0.5,2.6-1.3,5.3-3.5,7.3c-0.1,0.1-0.1,0.1-0.1,0.1c0,0,0.1,0,0.1-0.1
			C17.9,24.7,18.7,21.9,19.2,19.3c0-0.1,0-0.1,0-0.1C19.2,19.2,19.2,19.3,19.2,19.3"/>
		<path id="XMLID_49_" class="st0" d="M7,20.9C7.1,21,7.1,21,7,20.9c0-0.1,0-0.2-0.1-0.2c0,0,0,0,0,0C7,20.8,7,20.9,7,20.9"/>
		<path id="XMLID_39_" class="st0" d="M6.3,13.3l-0.1-0.4L6.3,13.3L6.3,13.3z M5.7,13.9c0,0.1,0,0.1,0,0.1
			C5.7,13.9,5.7,13.9,5.7,13.9 M5.7,14.9l0-0.1L5.7,14.9z M5.7,14.7L5.7,14.7C5.7,14.7,5.7,14.7,5.7,14.7
			C5.6,14.6,5.7,14.6,5.7,14.7 M5.9,9.6C6,9.3,6.1,9,6.2,8.7L6.4,8C6.5,7.3,6.8,6.6,7,6c0,0.1,0-0.1,0-0.2l0.1-0.2
			C6.9,6.3,6.6,6.9,6.4,7.7C6.2,8.3,6,9,5.9,9.6 M19.3,13.4c-0.1-1.4-0.3-2.9-0.6-4.3l0.2,1C19.1,11.3,19.3,12.3,19.3,13.4 M6,11
			L6,11c0,0.1,0,0.2,0,0.2C6,11.1,6,11.1,6,11 M6.8,6.9L6.8,6.9l0.1-0.2c0,0,0,0,0.2-0.3C7,6.5,6.8,6.7,6.8,6.9 M7.6,21.3
			C7.7,21.6,7.9,22,8,22.2l0.1,0.2c0,0,0,0,0.1,0.2c1,2.1,3.2,4.8,5.6,4c0,0,0,0,0.1-0.1c0.2-0.1,0.4-0.2,0.7-0.4
			c0.1,0,0.1-0.1,0.2-0.2c0.9-0.7,1.5-1.6,2-2.6c0.1-0.2,0.2-0.5,0.3-0.7c0.4-0.9,0.6-1.9,0.8-2.9c0,0.1,0,0.1,0,0.1
			c0,0,0-0.3,0.1-0.5l0.1-0.4c-0.1,0.4-0.2,0.8-0.2,1.2l0,0.2c-0.1,0.4-0.2,0.9-0.3,1.3C16.8,23.2,16,25,14.6,26
			c-1.4,1.1-3.3,0.5-4.5-0.8c0,0-0.1-0.1-0.1-0.1c0,0,0,0,0,0c1.5,1.7,3.8,2,5.3,0.1c1.9-2.2,2.5-5.5,2.7-8.6
			c0.1-3.3-0.3-6.5-1.6-9.5c-0.9-2-2.3-3.9-3.9-4.2c-1.6-0.3-3.1,1.4-3.9,3.4c-0.6,1.5-1,3-1.1,3.2c-0.1,0.1-0.1-0.3,0-1L7.3,8.9
			L7.1,9.5c-0.1,0.6-0.2,1.1-0.3,1.4l-0.1,0.5C6.6,12,6.5,13,6.4,13.5l0-0.1l0,0.1c0,0.4,0,0.7-0.1,0.8l0,0c0-0.1-0.1-0.3-0.1-0.6
			c0,0,0,0-0.1-0.1c0,0.3-0.1,0.4-0.1,0.2c0,0.2,0,0.1,0-0.1l0-0.2v0c0,0.1,0,0.1,0,0.2c0,0.2,0,0.3,0,0.3c0,0.4,0,0.4,0,0.8
			c0,0.3,0,0.5,0,0.5c0,0.4,0,0.4-0.1,0.3l0-0.1c0,0.3,0,0.3,0,0.4c0,0.1,0,0.1,0,0.1c0,0,0,0,0,0.1c0,0,0,0,0,0c0-0.2,0-0.2,0-0.2
			c0,0,0-0.1,0-0.1c0-0.2,0-0.3,0-0.3c0-0.4,0-0.4,0-0.4l0-0.1l0-0.1l0,0.1l0-0.2c0,0.2,0,0.2,0,0.2c0-0.5,0-0.5,0-0.7
			c0-0.2,0-0.4,0-0.4c0,0,0,0,0,0c0-0.5,0-0.5,0-1l0-0.1c0,0,0-0.1,0-0.2l0-0.3v-0.1l0,0c0-0.1,0-0.2,0-0.2c0,0,0,0,0,0l0,0
			c0-0.2,0-0.4,0-1l0.1-0.4l0,0.1c0,0.1,0,0,0,0.1c-0.2,1.1-0.3,2.4-0.2,3.6c0,0.2,0,0.4,0,0.5c0,0,0-0.1,0-0.3
			c-0.2-2.5,0.2-5.5,1.1-7.9c0.2-0.6,0.5-1.3,0.9-1.9L7.4,4.6l0.3-0.5l0,0L7.5,4.5L7.3,4.7C6.6,6.1,6.1,7.5,5.8,9
			c-0.2,0.8-0.3,1.5-0.4,2.3c0,0.2,0,0.3,0,0.3c0,0,0-0.2,0-0.4c0.2-2.6,1.1-5.5,2.4-7.3C8,3.5,8.2,3.1,8.6,2.8l0,0L8.3,3
			C8.6,2.7,8.7,2.6,9,2.4L8.9,2.4C10.2,1,13,0.6,14.4,1.8L14.6,2c0.6,0.4,1.2,0.9,1.7,1.6c-0.2-0.2-0.4-0.5-0.6-0.7
			c0.5,0.4,0.8,0.9,1.2,1.5c1,1.5,1.6,3.4,1.7,4.3c0.9,3.2,1.1,6.6,0.7,9.9c0,0.2,0,0.3-0.1,0.4c0,0,0-0.1,0-0.3
			c0.3-2.4,0.2-4.8-0.1-7.2c0.3,2,0.3,4,0.1,6.1c0,0.3,0,0.5-0.1,0.8l-0.1,0.8c-0.5,2.6-1.2,5.1-3.2,7.2c-1.7,1.9-5,1.7-6.5-0.2
			c-2.3-2.5-3.2-5.5-3.8-8.6c-0.1-0.4-0.1-0.8-0.1-0.9c0-0.1,0.1,0.2,0.1,0.7c0.6,3.2,1.6,6.6,4.1,9c1.2,1.2,3.5,1.8,5.1,0.7
			c1.6-1,2.5-2.6,3.2-4.2c0.3-0.7,0.5-1.4,0.7-2.1l0,0c0,0,0-0.1,0-0.2c-0.2,0.8-0.4,1.6-0.8,2.4c-0.8,2-2.3,4.7-5.3,4.6
			c-1.9-0.2-3.1-1.6-4-2.9c-1.1-1.7-1.9-3.6-2.3-5.5c0-0.1,0-0.2,0-0.2c0,0,0,0,0,0.1c0.3,1.3,0.8,2.7,1.4,4
			c-0.1-0.2-0.1-0.3-0.1-0.3c0,0,0.1,0.2,0.2,0.4c-0.2-0.3-0.3-0.6-0.4-0.9c-0.1-0.2-0.1-0.3-0.1-0.3c0,0,0.1,0.1,0.2,0.3
			c0.5,1.2,1.2,2.4,2,3.4c1,1.2,2.7,2.1,4.3,1.6c-0.2,0.1-0.4,0-0.5,0h0c-0.2,0.1-0.5,0-0.7,0c-2.4-0.2-3.9-2.4-4.8-4.3
			c-1-2.1-1.5-4.3-1.7-6.6c0-0.1,0-0.2,0-0.2c0,0,0,0.1,0,0.1c0.1,1.4,0.4,2.7,0.8,4l0,0c0-0.1,0-0.1,0,0c0,0,0,0.2,0.1,0.2
			c0,0.1,0,0.1,0,0c0.8,2.4,1.9,4.9,4.2,6.2c-2-1.2-3.2-3.5-3.9-5.6C7,20.8,7,20.6,6.9,20.3c0-0.1,0-0.2,0-0.2c0,0,0,0,0,0.1
			l0.1,0.2c-0.1-0.4-0.2-0.8-0.2-0.8c0,0,0.2,0.4,0.3,0.8c0.4,1.2,0.8,2.3,1.4,3.3l0.2,0.3l0.2,0.3c-1-1.6-1.7-3.3-2.1-5.2
			c0-0.2-0.1-0.3-0.1-0.3c0,0,0,0.1,0.1,0.3c0.8,3,2.3,6.7,5.5,7.5c1,0.2,2.1-0.3,2.8-1l-0.3,0.3c-1.4,1.1-3.2,0.8-4.4-0.3
			c-1.3-1-2.1-2.5-2.8-4.1c0-0.1-0.1-0.2-0.1-0.2c0,0,0,0,0.1,0.1c0.7,1.6,1.5,2.9,2.7,4c1,0.9,2.3,1.3,3.5,0.8
			c-2.5,0.8-4.6-1.6-5.6-3.8c-0.1-0.1-0.1-0.2-0.1-0.3c0,0,0,0,0-0.1c-0.1-0.3-0.3-0.6-0.4-1C7.6,21.4,7.6,21.3,7.6,21.3
			C7.6,21.2,7.6,21.2,7.6,21.3"/>
		<g id="XMLID_35_">
			<path id="XMLID_36_" class="st0" d="M34.2,4.8v6.7h0.1c0.4-0.7,1.1-1.2,1.8-1.5c0.8-0.3,1.6-0.5,2.4-0.5c0.7,0,1.3,0.1,2,0.4
				c0.7,0.3,1.2,0.7,1.8,1.3c0.5,0.6,1,1.3,1.3,2.2c0.3,0.9,0.5,1.9,0.5,3.2c0,1.2-0.2,2.3-0.5,3.2c-0.3,0.9-0.8,1.6-1.3,2.2
				c-0.5,0.6-1.1,1-1.8,1.3c-0.7,0.3-1.3,0.4-2,0.4c-1,0-1.9-0.2-2.6-0.5c-0.8-0.3-1.4-0.8-1.8-1.6H34v1.7h-3.5V4.8H34.2z
				 M40.1,14.9c-0.1-0.5-0.3-1-0.6-1.4c-0.3-0.4-0.6-0.7-1-0.9c-0.4-0.2-0.9-0.3-1.4-0.3c-0.5,0-1,0.1-1.4,0.3
				c-0.4,0.2-0.7,0.5-1,0.9c-0.3,0.4-0.4,0.9-0.6,1.4c-0.1,0.5-0.2,1.1-0.2,1.6c0,0.6,0.1,1.1,0.2,1.6c0.1,0.5,0.3,1,0.6,1.4
				c0.3,0.4,0.6,0.7,1,0.9c0.4,0.2,0.9,0.3,1.4,0.3c0.6,0,1-0.1,1.4-0.3c0.4-0.2,0.7-0.5,1-0.9c0.3-0.4,0.4-0.9,0.6-1.4
				c0.1-0.5,0.2-1.1,0.2-1.6C40.3,16,40.3,15.4,40.1,14.9z"/>
		</g>
		<g id="XMLID_32_">
			<path id="XMLID_33_" class="st0" d="M53.9,23.2v-1.9h-0.1c-0.5,0.8-1.1,1.3-1.8,1.7c-0.7,0.3-1.5,0.5-2.3,0.5
				c-1,0-1.8-0.1-2.4-0.4c-0.6-0.3-1.1-0.6-1.5-1.1c-0.4-0.5-0.6-1.1-0.8-1.7c-0.1-0.7-0.2-1.4-0.2-2.3V9.9h3.7v7.5
				c0,1.1,0.2,1.9,0.5,2.5c0.3,0.5,1,0.8,1.8,0.8c1,0,1.7-0.3,2.2-0.9c0.4-0.6,0.7-1.6,0.7-2.9v-7h3.7v13.4H53.9z"/>
		</g>
		<g id="XMLID_29_">
			<path id="XMLID_30_" class="st0" d="M67,9.9v2.5h-2.7v6.6c0,0.6,0.1,1,0.3,1.2c0.2,0.2,0.6,0.3,1.2,0.3c0.2,0,0.4,0,0.6,0
				c0.2,0,0.4,0,0.5-0.1v2.8c-0.3,0.1-0.7,0.1-1,0.1c-0.4,0-0.7,0-1.1,0c-0.6,0-1.1,0-1.6-0.1c-0.5-0.1-1-0.2-1.3-0.5
				c-0.4-0.2-0.7-0.5-0.9-1c-0.2-0.4-0.3-1-0.3-1.6v-7.9h-2.2V9.9h2.2v-4h3.7v4H67z"/>
		</g>
		<g id="XMLID_26_">
			<path id="XMLID_27_" class="st0" d="M76.5,9.9v2.5h-2.7v6.6c0,0.6,0.1,1,0.3,1.2c0.2,0.2,0.6,0.3,1.2,0.3c0.2,0,0.4,0,0.6,0
				c0.2,0,0.4,0,0.5-0.1v2.8c-0.3,0.1-0.7,0.1-1,0.1c-0.4,0-0.7,0-1.1,0c-0.6,0-1.1,0-1.6-0.1c-0.5-0.1-1-0.2-1.3-0.5
				c-0.4-0.2-0.7-0.5-0.9-1c-0.2-0.4-0.3-1-0.3-1.6v-7.9h-2.2V9.9h2.2v-4h3.7v4H76.5z"/>
		</g>
		<g id="XMLID_22_">
			<path id="XMLID_23_" class="st0" d="M81.5,20c0.6,0.5,1.3,0.8,2.4,0.8c0.7,0,1.4-0.2,1.9-0.6c0.5-0.4,0.9-0.8,1-1.2H90
				c-0.5,1.6-1.3,2.7-2.4,3.4c-1.1,0.7-2.4,1-3.9,1c-1.1,0-2-0.2-2.8-0.5c-0.8-0.3-1.6-0.8-2.1-1.4c-0.6-0.6-1-1.4-1.4-2.2
				c-0.3-0.9-0.5-1.8-0.5-2.8c0-1,0.2-1.9,0.5-2.8c0.3-0.9,0.8-1.6,1.4-2.2c0.6-0.6,1.3-1.1,2.2-1.5c0.8-0.4,1.8-0.5,2.8-0.5
				c1.1,0,2.1,0.2,3,0.7c0.8,0.4,1.5,1,2.1,1.8c0.5,0.7,0.9,1.6,1.2,2.5c0.2,0.9,0.3,1.9,0.3,3h-9.6C80.6,18.6,80.9,19.5,81.5,20z
				 M85.6,13c-0.4-0.5-1.1-0.7-2-0.7c-0.6,0-1.1,0.1-1.5,0.3c-0.4,0.2-0.7,0.4-0.9,0.7c-0.2,0.3-0.4,0.6-0.5,0.9
				c-0.1,0.3-0.2,0.6-0.2,0.9h6C86.4,14.2,86.1,13.5,85.6,13z"/>
		</g>
		<g id="XMLID_19_">
			<path id="XMLID_20_" class="st0" d="M94.7,9.9v2.5h0.1c0.2-0.4,0.4-0.8,0.7-1.1c0.3-0.4,0.6-0.7,1-0.9c0.4-0.2,0.8-0.4,1.2-0.6
				c0.4-0.1,0.9-0.2,1.3-0.2c0.2,0,0.5,0,0.8,0.1V13c-0.2,0-0.4-0.1-0.6-0.1c-0.2,0-0.5,0-0.7,0c-0.7,0-1.2,0.1-1.7,0.3
				c-0.5,0.2-0.8,0.5-1.1,0.9c-0.3,0.4-0.5,0.8-0.6,1.4c-0.1,0.5-0.2,1.1-0.2,1.7v6h-3.7V9.9H94.7z"/>
		</g>
		<g id="XMLID_16_">
			<path id="XMLID_17_" class="st0" d="M100.6,12.3V9.9h2.2v-1c0-1.2,0.4-2.2,1.1-2.9c0.7-0.8,1.9-1.1,3.4-1.1c0.3,0,0.7,0,1,0
				c0.3,0,0.6,0,1,0.1v2.7c-0.4-0.1-0.9-0.1-1.3-0.1c-0.5,0-0.9,0.1-1.1,0.3c-0.2,0.2-0.3,0.6-0.3,1.2v0.8h2.5v2.5h-2.5v10.9h-3.7
				V12.3H100.6z"/>
		</g>
		<g id="XMLID_13_">
			<path id="XMLID_14_" class="st0" d="M113.8,4.8v18.4h-3.7V4.8H113.8z"/>
		</g>
		<g id="XMLID_10_">
			<path id="XMLID_11_" class="st0" d="M121.2,27.2c-0.7,0.5-1.7,0.7-2.9,0.7c-0.4,0-0.8,0-1.1,0c-0.4,0-0.7-0.1-1.1-0.1v-3
				c0.3,0,0.7,0.1,1.1,0.1c0.4,0,0.7,0,1.1,0c0.5-0.1,0.8-0.2,1.1-0.6c0.2-0.3,0.3-0.7,0.3-1.1c0-0.3-0.1-0.6-0.2-0.8l-4.7-12.5h3.9
				l3,9.1h0.1l2.9-9.1h3.8l-5.6,15C122.4,26,121.9,26.7,121.2,27.2z"/>
		</g>
	</g>
	<g id="XMLID_2_">
		<path id="XMLID_6_" class="st0" d="M130.2,3.6c-1,0-1.8,0.8-1.8,1.8c0,1,0.8,1.8,1.8,1.8c1,0,1.8-0.8,1.8-1.8
			C132,4.5,131.2,3.6,130.2,3.6z M130.2,7.1c-0.9,0-1.6-0.7-1.6-1.6s0.7-1.6,1.6-1.6c0.9,0,1.6,0.7,1.6,1.6S131.1,7.1,130.2,7.1z"/>
		<path id="XMLID_3_" class="st0" d="M130.5,5.5L130.5,5.5c0.2-0.1,0.4-0.3,0.4-0.6c0-0.2-0.1-0.3-0.2-0.4c-0.1-0.1-0.3-0.2-0.6-0.2
			c-0.2,0-0.4,0-0.5,0v2.1h0.3V5.6h0.3c0.3,0,0.4,0.1,0.4,0.4c0.1,0.3,0.1,0.5,0.1,0.5h0.3c0-0.1-0.1-0.3-0.2-0.6
			C130.7,5.8,130.6,5.6,130.5,5.5z M130.1,5.4h-0.3V4.6c0,0,0.1,0,0.3,0c0.3,0,0.5,0.1,0.5,0.4C130.6,5.3,130.4,5.4,130.1,5.4z"/>
	</g>
</g>
</svg>
